<svg width="24" height="24" viewBox="0 0 24 24" fill="none" xmlns="http://www.w3.org/2000/svg">
<path d="M21.2857 16.9355V20.4194H17.6286V17.8065H14.8857V15.1935H12.1429L10.0766 13.2252C9.57371 13.3732 9.04343 13.4516 8.48571 13.4516C7.03081 13.4516 5.6355 12.901 4.60673 11.921C3.57796 10.941 3 9.61178 3 8.22581C3 6.83984 3.57796 5.51063 4.60673 4.5306C5.6355 3.55057 7.03081 3 8.48571 3C9.94062 3 11.3359 3.55057 12.3647 4.5306C13.3935 5.51063 13.9714 6.83984 13.9714 8.22581C13.9714 8.7571 13.8891 9.26226 13.7337 9.74129L21.2857 16.9355ZM7.57143 5.6129C7.08646 5.6129 6.62136 5.79643 6.27843 6.1231C5.93551 6.44978 5.74286 6.89285 5.74286 7.35484C5.74286 7.81683 5.93551 8.2599 6.27843 8.58657C6.62136 8.91325 7.08646 9.09677 7.57143 9.09677C8.0564 9.09677 8.5215 8.91325 8.86442 8.58657C9.20735 8.2599 9.4 7.81683 9.4 7.35484C9.4 6.89285 9.20735 6.44978 8.86442 6.1231C8.5215 5.79643 8.0564 5.6129 7.57143 5.6129Z" fill="#3E4259"/>
</svg>
