<svg width="22" height="22" viewBox="0 0 22 22" fill="none" xmlns="http://www.w3.org/2000/svg">
<path d="M9.16668 15.5835L4.58334 11.0002L5.87584 9.6985L9.16668 12.9893L16.1242 6.03183L17.4167 7.3335M11 1.8335C9.79623 1.8335 8.60423 2.0706 7.49208 2.53127C6.37993 2.99194 5.3694 3.66715 4.5182 4.51835C2.79911 6.23743 1.83334 8.56901 1.83334 11.0002C1.83334 13.4313 2.79911 15.7629 4.5182 17.482C5.3694 18.3332 6.37993 19.0084 7.49208 19.4691C8.60423 19.9297 9.79623 20.1668 11 20.1668C13.4312 20.1668 15.7627 19.2011 17.4818 17.482C19.2009 15.7629 20.1667 13.4313 20.1667 11.0002C20.1667 9.79638 19.9296 8.60438 19.4689 7.49223C19.0082 6.38008 18.333 5.36955 17.4818 4.51835C16.6306 3.66715 15.6201 2.99194 14.5079 2.53127C13.3958 2.0706 12.2038 1.8335 11 1.8335Z" fill="#006838"/>
</svg>
