<svg width="22" height="22" viewBox="0 0 22 22" fill="none" xmlns="http://www.w3.org/2000/svg">
<path d="M18.3335 18.3334H3.66683C3.1806 18.3334 2.71428 18.1403 2.37047 17.7964C2.02665 17.4526 1.8335 16.9863 1.8335 16.5001V5.50008C1.8335 5.01385 2.02665 4.54754 2.37047 4.20372C2.71428 3.8599 3.1806 3.66675 3.66683 3.66675H18.3335C18.8197 3.66675 19.286 3.8599 19.6299 4.20372C19.9737 4.54754 20.1668 5.01385 20.1668 5.50008V16.5001C20.1668 16.9863 19.9737 17.4526 19.6299 17.7964C19.286 18.1403 18.8197 18.3334 18.3335 18.3334ZM4.5835 11.9167V13.7501H14.6668V11.9167H4.5835ZM4.5835 8.25008V10.0834H17.4168V8.25008H4.5835Z" fill="#DC2626"/>
</svg>
