<svg width="20" height="20" viewBox="0 0 20 20" fill="none" xmlns="http://www.w3.org/2000/svg">
<path d="M11.0357 7.6H15.9464L11.0357 3.2V7.6ZM4.78571 2H11.9286L17.2857 6.8V16.4C17.2857 16.8243 17.0976 17.2313 16.7627 17.5314C16.4278 17.8314 15.9736 18 15.5 18H4.78571C4.31211 18 3.85791 17.8314 3.52302 17.5314C3.18814 17.2313 3 16.8243 3 16.4V3.6C3 2.712 3.79464 2 4.78571 2ZM5.67857 16.4H7.46429V11.6H5.67857V16.4ZM9.25 16.4H11.0357V10H9.25V16.4ZM12.8214 16.4H14.6071V13.2H12.8214V16.4Z" fill="#DC2626"/>
</svg>
