<svg width="20" height="20" viewBox="0 0 20 20" fill="none" xmlns="http://www.w3.org/2000/svg">
<path d="M9.88969 12.7741C9.12467 12.7741 8.39099 12.4702 7.85004 11.9293C7.30909 11.3883 7.00519 10.6546 7.00519 9.88962C7.00519 9.1246 7.30909 8.39092 7.85004 7.84997C8.39099 7.30902 9.12467 7.00512 9.88969 7.00512C10.6547 7.00512 11.3884 7.30902 11.9293 7.84997C12.4703 8.39092 12.7742 9.1246 12.7742 9.88962C12.7742 10.6546 12.4703 11.3883 11.9293 11.9293C11.3884 12.4702 10.6547 12.7741 9.88969 12.7741ZM16.0131 10.689C16.046 10.4253 16.0708 10.1616 16.0708 9.88962C16.0708 9.61765 16.046 9.34568 16.0131 9.06547L17.752 7.72212C17.9086 7.5985 17.9498 7.37598 17.8509 7.19467L16.2026 4.34314C16.1037 4.16183 15.8812 4.08766 15.6999 4.16183L13.6478 4.98597C13.2192 4.66456 12.7742 4.38435 12.255 4.17831L11.95 1.99433C11.9333 1.89726 11.8827 1.80925 11.8073 1.7459C11.7319 1.68254 11.6365 1.64793 11.538 1.64819H8.24141C8.03537 1.64819 7.8623 1.79654 7.82933 1.99433L7.5244 4.17831C7.00519 4.38435 6.56016 4.66456 6.1316 4.98597L4.07949 4.16183C3.89818 4.08766 3.67566 4.16183 3.57676 4.34314L1.92848 7.19467C1.82134 7.37598 1.87079 7.5985 2.02737 7.72212L3.76631 9.06547C3.73335 9.34568 3.70862 9.61765 3.70862 9.88962C3.70862 10.1616 3.73335 10.4253 3.76631 10.689L2.02737 12.0571C1.87079 12.1807 1.82134 12.4032 1.92848 12.5846L3.57676 15.4361C3.67566 15.6174 3.89818 15.6833 4.07949 15.6174L6.1316 14.785C6.56016 15.1147 7.00519 15.3949 7.5244 15.6009L7.82933 17.7849C7.8623 17.9827 8.03537 18.131 8.24141 18.131H11.538C11.744 18.131 11.9171 17.9827 11.95 17.7849L12.255 15.6009C12.7742 15.3866 13.2192 15.1147 13.6478 14.785L15.6999 15.6174C15.8812 15.6833 16.1037 15.6174 16.2026 15.4361L17.8509 12.5846C17.9498 12.4032 17.9086 12.1807 17.752 12.0571L16.0131 10.689Z" fill="#DC2626"/>
</svg>
