<svg width="59" height="59" viewBox="0 0 59 59" fill="none" xmlns="http://www.w3.org/2000/svg">
<path d="M56.2959 52.1166L46.2167 42.0374C47.2 39.5791 46.7084 36.3833 44.4959 34.4166C42.2834 32.2041 39.0875 31.7124 36.3834 32.9416L41.0542 37.6124L37.6125 41.0541L32.6959 36.1374C31.4667 38.8416 31.9584 42.0374 34.1709 44.4958C36.3834 46.7083 39.3334 47.1999 41.7917 46.2166L51.8709 56.2958C52.3625 56.7874 53.1 56.7874 53.3459 56.2958L55.8042 53.8374C56.5417 53.0999 56.5417 52.3624 56.2959 52.1166ZM31.9584 49.1666H4.91669V44.2499C4.91669 38.8416 13.7667 34.4166 24.5834 34.4166C25.8125 34.4166 27.0417 34.4166 28.025 34.6624C27.2875 36.1374 27.0417 37.6124 27.0417 39.3333C27.0417 43.2666 29.0084 46.9541 31.9584 49.1666ZM24.5834 9.83325C19.175 9.83325 14.75 14.2583 14.75 19.6666C14.75 25.0749 19.175 29.4999 24.5834 29.4999C29.9917 29.4999 34.4167 25.0749 34.4167 19.6666C34.4167 14.2583 29.9917 9.83325 24.5834 9.83325Z" fill="#DC2626"/>
</svg>
