<svg width="21" height="19" viewBox="0 0 21 19" fill="none" xmlns="http://www.w3.org/2000/svg">
<path d="M19.9646 3.85195L17.8755 0.486133C17.6896 0.185547 17.3578 0 17.0042 0H3.99583C3.64219 0 3.31042 0.185547 3.12448 0.486133L1.03177 3.85195C-0.0473951 5.58867 0.907813 8.00449 2.92396 8.28281C3.06979 8.30137 3.21927 8.3125 3.3651 8.3125C4.31667 8.3125 5.1625 7.88945 5.74219 7.23633C6.32188 7.88945 7.16771 8.3125 8.11927 8.3125C9.07083 8.3125 9.91667 7.88945 10.4964 7.23633C11.076 7.88945 11.9219 8.3125 12.8734 8.3125C13.8286 8.3125 14.6708 7.88945 15.2505 7.23633C15.8339 7.88945 16.676 8.3125 17.6276 8.3125C17.7771 8.3125 17.9229 8.30137 18.0688 8.28281C20.0922 8.0082 21.051 5.59238 19.9682 3.85195H19.9646ZM18.2182 9.45918H18.2146C18.0214 9.48516 17.8245 9.5 17.624 9.5C17.1719 9.5 16.738 9.42949 16.3333 9.30332V14.25H4.66667V9.29961C4.25833 9.42949 3.82083 9.5 3.36875 9.5C3.16823 9.5 2.96771 9.48516 2.77448 9.45918H2.77083C2.62136 9.43691 2.47552 9.41094 2.33333 9.37383V16.625C2.33333 17.935 3.37969 19 4.66667 19H16.3333C17.6203 19 18.6667 17.935 18.6667 16.625V9.37383C18.5208 9.41094 18.375 9.44063 18.2182 9.45918Z" fill="#4220C0"/>
</svg>
