<svg width="22" height="22" viewBox="0 0 22 22" fill="none" xmlns="http://www.w3.org/2000/svg">
<path d="M18.3333 11.0001C18.3333 11.4863 18.5265 11.9526 18.8703 12.2964C19.2141 12.6403 19.6804 12.8334 20.1666 12.8334V16.5001C20.1666 16.9863 19.9735 17.4526 19.6297 17.7964C19.2859 18.1403 18.8195 18.3334 18.3333 18.3334H3.66665C3.18042 18.3334 2.7141 18.1403 2.37028 17.7964C2.02647 17.4526 1.83331 16.9863 1.83331 16.5001V12.8334C2.31954 12.8334 2.78586 12.6403 3.12968 12.2964C3.47349 11.9526 3.66665 11.4863 3.66665 11.0001C3.66665 10.5139 3.47349 10.0475 3.12968 9.70372C2.78586 9.3599 2.31954 9.16675 1.83331 9.16675V5.50008C1.83331 5.01385 2.02647 4.54754 2.37028 4.20372C2.7141 3.8599 3.18042 3.66675 3.66665 3.66675H18.3333C18.8195 3.66675 19.2859 3.8599 19.6297 4.20372C19.9735 4.54754 20.1666 5.01385 20.1666 5.50008V9.16675C19.6804 9.16675 19.2141 9.3599 18.8703 9.70372C18.5265 10.0475 18.3333 10.5139 18.3333 11.0001ZM15.125 14.8959C15.125 13.5209 12.375 12.8334 11 12.8334C9.62498 12.8334 6.87498 13.5209 6.87498 14.8959V15.5834H15.125V14.8959ZM11 11.2292C11.547 11.2292 12.0716 11.0119 12.4584 10.6252C12.8452 10.2384 13.0625 9.71376 13.0625 9.16675C13.0625 8.61974 12.8452 8.09513 12.4584 7.70834C12.0716 7.32155 11.547 7.10425 11 7.10425C10.453 7.10425 9.92837 7.32155 9.54157 7.70834C9.15478 8.09513 8.93748 8.61974 8.93748 9.16675C8.93748 9.71376 9.15478 10.2384 9.54157 10.6252C9.92837 11.0119 10.453 11.2292 11 11.2292Z" fill="#7D8089"/>
</svg>
