<svg width="58" height="51" viewBox="0 0 58 51" fill="none" xmlns="http://www.w3.org/2000/svg">
<path d="M55.1403 10.3395L49.3705 1.30488C48.8569 0.498047 47.9406 0 46.9639 0H11.0361C10.0594 0 9.14305 0.498047 8.62951 1.30488L2.84965 10.3395C-0.130905 15.0012 2.50729 21.4857 8.07569 22.2328C8.47847 22.2826 8.89132 22.3125 9.2941 22.3125C11.9222 22.3125 14.2583 21.177 15.8594 19.4238C17.4604 21.177 19.7965 22.3125 22.4247 22.3125C25.0528 22.3125 27.3889 21.177 28.9899 19.4238C30.591 21.177 32.9271 22.3125 35.5552 22.3125C38.1934 22.3125 40.5194 21.177 42.1205 19.4238C43.7316 21.177 46.0576 22.3125 48.6858 22.3125C49.0986 22.3125 49.5014 22.2826 49.9042 22.2328C55.4927 21.4957 58.141 15.0111 55.1503 10.3395H55.1403ZM50.317 25.3904H50.3069C49.7733 25.4602 49.2295 25.5 48.6757 25.5C47.4271 25.5 46.2288 25.3107 45.1111 24.9721V38.25H12.8889V24.9621C11.7611 25.3107 10.5528 25.5 9.30416 25.5C8.75035 25.5 8.19653 25.4602 7.66285 25.3904H7.65278C7.23993 25.3307 6.83715 25.2609 6.44444 25.1613V44.625C6.44444 48.1412 9.33437 51 12.8889 51H45.1111C48.6656 51 51.5556 48.1412 51.5556 44.625V25.1613C51.1528 25.2609 50.75 25.3406 50.317 25.3904Z" fill="#DC2626"/>
</svg>
