<svg width="51" height="51" viewBox="0 0 51 51" fill="none" xmlns="http://www.w3.org/2000/svg">
<path fill-rule="evenodd" clip-rule="evenodd" d="M51 35.4167V13.8833C51 12.4556 50.3843 11.0863 49.2884 10.0767C48.1925 9.06717 46.7061 8.5 45.1562 8.5H10.0937C8.54389 8.5 7.05751 9.06717 5.96159 10.0767C4.86568 11.0863 4.25 12.4556 4.25 13.8833V35.4167C4.25 36.8444 4.86568 38.2137 5.96159 39.2233C7.05751 40.2328 8.54389 40.8 10.0937 40.8H18.8594L27.625 48.875L36.3906 40.8H45.1562C46.7061 40.8 48.1925 40.2328 49.2884 39.2233C50.3843 38.2137 51 36.8444 51 35.4167ZM13.0156 19.2667C13.0156 18.5528 13.3235 17.8682 13.8714 17.3634C14.4194 16.8586 15.1626 16.575 15.9375 16.575H39.3125C40.0874 16.575 40.8306 16.8586 41.3786 17.3634C41.9265 17.8682 42.2344 18.5528 42.2344 19.2667C42.2344 19.9805 41.9265 20.6652 41.3786 21.17C40.8306 21.6747 40.0874 21.9583 39.3125 21.9583H15.9375C15.1626 21.9583 14.4194 21.6747 13.8714 21.17C13.3235 20.6652 13.0156 19.9805 13.0156 19.2667ZM15.9375 27.3417C15.1626 27.3417 14.4194 27.6253 13.8714 28.13C13.3235 28.6348 13.0156 29.3195 13.0156 30.0333C13.0156 30.7472 13.3235 31.4318 13.8714 31.9366C14.4194 32.4414 15.1626 32.725 15.9375 32.725H24.7031C25.4781 32.725 26.2212 32.4414 26.7692 31.9366C27.3172 31.4318 27.625 30.7472 27.625 30.0333C27.625 29.3195 27.3172 28.6348 26.7692 28.13C26.2212 27.6253 25.4781 27.3417 24.7031 27.3417H15.9375Z" fill="#DC2626"/>
</svg>
