<svg width="59" height="54" viewBox="0 0 59 54" fill="none" xmlns="http://www.w3.org/2000/svg">
<rect width="59" height="54" rx="4" fill="white"/>
<path d="M26.6 14.8364C26.6 17.1799 25.6676 19.4275 24.0079 21.0846C22.3482 22.7418 20.0972 23.6727 17.75 23.6727C15.4028 23.6727 13.1518 22.7418 11.4921 21.0846C9.83241 19.4275 8.9 17.1799 8.9 14.8364C8.9 12.4928 9.83241 10.2453 11.4921 8.58811C13.1518 6.93097 15.4028 6 17.75 6C20.0972 6 22.3482 6.93097 24.0079 8.58811C25.6676 10.2453 26.6 12.4928 26.6 14.8364ZM50.2 14.8364C50.2 15.9968 49.9711 17.1458 49.5263 18.2179C49.0816 19.29 48.4297 20.2641 47.6079 21.0846C46.7861 21.9051 45.8105 22.556 44.7368 23.0001C43.663 23.4442 42.5122 23.6727 41.35 23.6727C40.1878 23.6727 39.037 23.4442 37.9633 23.0001C36.8895 22.556 35.9139 21.9051 35.0921 21.0846C34.2703 20.2641 33.6184 19.29 33.1737 18.2179C32.7289 17.1458 32.5 15.9968 32.5 14.8364C32.5 12.4928 33.4324 10.2453 35.0921 8.58811C36.7518 6.93097 39.0028 6 41.35 6C43.6972 6 45.9482 6.93097 47.6079 8.58811C49.2676 10.2453 50.2 12.4928 50.2 14.8364ZM38.1935 47.2364C38.3292 46.2732 38.4 45.2924 38.4 44.2909C38.4068 39.6632 36.8475 35.1689 33.975 31.5371C36.2173 30.2445 38.7608 29.564 41.3499 29.564C43.939 29.564 46.4826 30.2445 48.7248 31.537C50.9671 32.8295 52.8291 34.6886 54.1237 36.9274C55.4184 39.1662 56.0999 41.7058 56.1 44.2909V47.2364H38.1935ZM17.75 29.5636C21.6619 29.5636 25.4137 31.1153 28.1798 33.8772C30.946 36.6391 32.5 40.385 32.5 44.2909V47.2364H3V44.2909C3 40.385 4.55401 36.6391 7.32018 33.8772C10.0863 31.1153 13.8381 29.5636 17.75 29.5636Z" fill="#DC2626"/>
</svg>
