<svg width="22" height="22" viewBox="0 0 22 22" fill="none" xmlns="http://www.w3.org/2000/svg">
<path d="M18.3333 18.3334H3.66665C3.18042 18.3334 2.7141 18.1403 2.37028 17.7964C2.02647 17.4526 1.83331 16.9863 1.83331 16.5001V5.50008C1.83331 5.01385 2.02647 4.54754 2.37028 4.20372C2.7141 3.8599 3.18042 3.66675 3.66665 3.66675H18.3333C18.8195 3.66675 19.2859 3.8599 19.6297 4.20372C19.9735 4.54754 20.1666 5.01385 20.1666 5.50008V16.5001C20.1666 16.9863 19.9735 17.4526 19.6297 17.7964C19.2859 18.1403 18.8195 18.3334 18.3333 18.3334ZM4.58331 11.9167V13.7501H14.6666V11.9167H4.58331ZM4.58331 8.25008V10.0834H17.4166V8.25008H4.58331Z" fill="#7D8089"/>
</svg>
