<svg width="20" height="20" viewBox="0 0 20 20" fill="none" xmlns="http://www.w3.org/2000/svg">
<path d="M13.1786 9.6H18.0893L13.1786 5.2V9.6ZM6.9286 4H14.0715L19.4286 8.8V18.4C19.4286 18.8243 19.2405 19.2313 18.9056 19.5314C18.5707 19.8314 18.1165 20 17.6429 20H6.9286C6.455 20 6.00079 19.8314 5.66591 19.5314C5.33102 19.2313 5.14288 18.8243 5.14288 18.4V5.6C5.14288 4.712 5.93753 4 6.9286 4ZM7.82145 18.4H9.60717V13.6H7.82145V18.4ZM11.3929 18.4H13.1786V12H11.3929V18.4ZM14.9643 18.4H16.75V15.2H14.9643V18.4Z" fill="#7D8089"/>
</svg>
