<svg width="22" height="22" viewBox="0 0 22 22" fill="none" xmlns="http://www.w3.org/2000/svg">
<path d="M18.3335 11.0001C18.3335 11.4863 18.5267 11.9526 18.8705 12.2964C19.2143 12.6403 19.6806 12.8334 20.1668 12.8334V16.5001C20.1668 16.9863 19.9737 17.4526 19.6299 17.7964C19.286 18.1403 18.8197 18.3334 18.3335 18.3334H3.66683C3.1806 18.3334 2.71428 18.1403 2.37047 17.7964C2.02665 17.4526 1.8335 16.9863 1.8335 16.5001V12.8334C2.31973 12.8334 2.78604 12.6403 3.12986 12.2964C3.47368 11.9526 3.66683 11.4863 3.66683 11.0001C3.66683 10.5139 3.47368 10.0475 3.12986 9.70372C2.78604 9.3599 2.31973 9.16675 1.8335 9.16675V5.50008C1.8335 5.01385 2.02665 4.54754 2.37047 4.20372C2.71428 3.8599 3.1806 3.66675 3.66683 3.66675H18.3335C18.8197 3.66675 19.286 3.8599 19.6299 4.20372C19.9737 4.54754 20.1668 5.01385 20.1668 5.50008V9.16675C19.6806 9.16675 19.2143 9.3599 18.8705 9.70372C18.5267 10.0475 18.3335 10.5139 18.3335 11.0001ZM15.1252 14.8959C15.1252 13.5209 12.3752 12.8334 11.0002 12.8334C9.62516 12.8334 6.87516 13.5209 6.87516 14.8959V15.5834H15.1252V14.8959ZM11.0002 11.2292C11.5472 11.2292 12.0718 11.0119 12.4586 10.6252C12.8454 10.2384 13.0627 9.71376 13.0627 9.16675C13.0627 8.61974 12.8454 8.09513 12.4586 7.70834C12.0718 7.32155 11.5472 7.10425 11.0002 7.10425C10.4532 7.10425 9.92855 7.32155 9.54176 7.70834C9.15496 8.09513 8.93766 8.61974 8.93766 9.16675C8.93766 9.71376 9.15496 10.2384 9.54176 10.6252C9.92855 11.0119 10.4532 11.2292 11.0002 11.2292Z" fill="#DC2626"/>
</svg>
