<svg width="24" height="24" viewBox="0 0 24 24" fill="none" xmlns="http://www.w3.org/2000/svg">
<path d="M6.5 5C5.84 5 5.28 5.42 5.08 6L3 12V20C3 20.2652 3.10536 20.5196 3.29289 20.7071C3.48043 20.8946 3.73478 21 4 21H5C5.26522 21 5.51957 20.8946 5.70711 20.7071C5.89464 20.5196 6 20.2652 6 20V19H11.3C11.1037 18.3514 11.0027 17.6777 11 17C11.0016 15.7905 11.3166 14.6021 11.9142 13.5506C12.5118 12.499 13.3717 11.6203 14.41 11H5L6.5 6.5H17.5L18.68 10.03C19.293 10.0939 19.8949 10.2385 20.47 10.46L18.92 6C18.72 5.42 18.16 5 17.5 5H6.5ZM17 12C16.9389 11.9989 16.8793 12.0193 16.8318 12.0577C16.7842 12.0961 16.7517 12.15 16.74 12.21L16.55 13.53C16.25 13.66 15.96 13.82 15.7 14L14.46 13.5C14.35 13.5 14.22 13.5 14.15 13.63L13.15 15.36C13.09 15.47 13.11 15.6 13.21 15.68L14.27 16.5C14.2302 16.8321 14.2302 17.1679 14.27 17.5L13.21 18.32C13.1651 18.3585 13.1346 18.4113 13.1237 18.4694C13.1128 18.5276 13.1221 18.5878 13.15 18.64L14.15 20.37C14.21 20.5 14.34 20.5 14.46 20.5L15.7 20C15.96 20.18 16.24 20.35 16.55 20.47L16.74 21.79C16.76 21.91 16.86 22 17 22H19C19.11 22 19.22 21.91 19.24 21.79L19.43 20.47C19.73 20.34 20 20.18 20.27 20L21.5 20.5C21.63 20.5 21.76 20.5 21.83 20.37L22.83 18.64C22.8579 18.5878 22.8672 18.5276 22.8563 18.4694C22.8454 18.4113 22.8149 18.3585 22.77 18.32L21.7 17.5C21.72 17.33 21.74 17.17 21.74 17C21.74 16.83 21.73 16.67 21.7 16.5L22.76 15.68C22.8049 15.6415 22.8354 15.5887 22.8463 15.5306C22.8572 15.4724 22.8479 15.4122 22.82 15.36L21.82 13.63C21.76 13.5 21.63 13.5 21.5 13.5L20.27 14C20 13.82 19.73 13.65 19.42 13.53L19.23 12.21C19.2237 12.153 19.1969 12.1003 19.1546 12.0617C19.1122 12.023 19.0573 12.0011 19 12H17ZM6.5 13C6.89782 13 7.27936 13.158 7.56066 13.4393C7.84196 13.7206 8 14.1022 8 14.5C8 14.8978 7.84196 15.2794 7.56066 15.5607C7.27936 15.842 6.89782 16 6.5 16C6.10218 16 5.72064 15.842 5.43934 15.5607C5.15804 15.2794 5 14.8978 5 14.5C5 14.1022 5.15804 13.7206 5.43934 13.4393C5.72064 13.158 6.10218 13 6.5 13ZM18 15.5C18.83 15.5 19.5 16.17 19.5 17C19.5 17.83 18.83 18.5 18 18.5C17.16 18.5 16.5 17.83 16.5 17C16.5 16.17 17.17 15.5 18 15.5Z" fill="#7D8089"/>
</svg>
