<svg width="22" height="22" viewBox="0 0 22 22" fill="none" xmlns="http://www.w3.org/2000/svg">
<path fill-rule="evenodd" clip-rule="evenodd" d="M5.55438 4.45499C6.99849 3.01089 8.95711 2.1996 10.9994 2.1996C13.0417 2.1996 15.0003 3.01089 16.4444 4.45499C17.8885 5.8991 18.6998 7.85772 18.6998 9.89999C18.6998 11.9423 17.8885 13.9009 16.4444 15.345L10.9994 20.79L5.55438 15.345C4.83929 14.63 4.27204 13.7811 3.88503 12.8468C3.49802 11.9126 3.29883 10.9112 3.29883 9.89999C3.29883 8.88875 3.49802 7.88741 3.88503 6.95315C4.27204 6.01889 4.83929 5.17001 5.55438 4.45499ZM10.9994 12.1C11.5829 12.1 12.1424 11.8682 12.555 11.4556C12.9676 11.043 13.1994 10.4835 13.1994 9.89999C13.1994 9.31652 12.9676 8.75694 12.555 8.34436C12.1424 7.93178 11.5829 7.69999 10.9994 7.69999C10.4159 7.69999 9.85633 7.93178 9.44375 8.34436C9.03117 8.75694 8.79938 9.31652 8.79938 9.89999C8.79938 10.4835 9.03117 11.043 9.44375 11.4556C9.85633 11.8682 10.4159 12.1 10.9994 12.1Z" fill="#DC2626"/>
</svg>
