<svg width="22" height="22" viewBox="0 0 22 22" fill="none" xmlns="http://www.w3.org/2000/svg">
<path d="M2.20312 6.4724L10.9998 10.8702L19.7965 6.4724C19.764 5.91189 19.5183 5.38504 19.1099 4.99975C18.7015 4.61446 18.1613 4.3999 17.5998 4.4H4.39983C3.83837 4.3999 3.29812 4.61446 2.88972 4.99975C2.48132 5.38504 2.23569 5.91189 2.20312 6.4724Z" fill="#DC2626"/>
<path d="M19.7992 8.9298L10.9992 13.3298L2.19922 8.9298V15.4C2.19922 15.9835 2.431 16.5431 2.84358 16.9556C3.25616 17.3682 3.81574 17.6 4.39922 17.6H17.5992C18.1827 17.6 18.7423 17.3682 19.1549 16.9556C19.5674 16.5431 19.7992 15.9835 19.7992 15.4V8.9298Z" fill="#DC2626"/>
</svg>
