<svg width="21" height="21" viewBox="0 0 21 21" fill="none" xmlns="http://www.w3.org/2000/svg">
<path d="M17.5359 5.96748L12.4959 2.44123C11.1222 1.47873 9.01344 1.53123 7.69219 2.55498L3.30844 5.97623C2.43344 6.65873 1.74219 8.05873 1.74219 9.16123V15.1987C1.74219 17.43 3.55344 19.25 5.78469 19.25H15.2172C17.4484 19.25 19.2597 17.4387 19.2597 15.2075V9.27498C19.2597 8.09373 18.4984 6.64123 17.5359 5.96748ZM11.1572 15.75C11.1572 16.1087 10.8597 16.4062 10.5009 16.4062C10.1422 16.4062 9.84469 16.1087 9.84469 15.75V13.125C9.84469 12.7662 10.1422 12.4687 10.5009 12.4687C10.8597 12.4687 11.1572 12.7662 11.1572 13.125V15.75Z" fill="white"/>
</svg>
