<svg width="22" height="22" viewBox="0 0 22 22" fill="none" xmlns="http://www.w3.org/2000/svg">
<path fill-rule="evenodd" clip-rule="evenodd" d="M19 8.99638C19.0003 9.93389 18.781 10.8584 18.3598 11.6959C17.9386 12.5334 17.3271 13.2605 16.5744 13.819C15.8216 14.3775 14.9486 14.7518 14.0252 14.912C13.1018 15.0722 12.1538 15.0138 11.257 14.7415L11 14.9986L10 15.9989L9 16.9993H7V19H3V14.9986L7.257 10.74C7.00745 9.91473 6.93857 9.04535 7.05504 8.19104C7.17152 7.33673 7.47062 6.51756 7.93199 5.78927C8.39336 5.06098 9.00616 4.44068 9.72869 3.97059C10.4512 3.50049 11.2665 3.19164 12.1191 3.06504C12.9716 2.93845 13.8415 2.9971 14.6693 3.23699C15.4972 3.47687 16.2637 3.89238 16.9166 4.45521C17.5696 5.01804 18.0936 5.71499 18.4531 6.49862C18.8127 7.28225 18.9992 8.13417 19 8.99638ZM13 4.99494C12.7348 4.99494 12.4804 5.10033 12.2929 5.28794C12.1054 5.47554 12 5.72999 12 5.9953C12 6.26061 12.1054 6.51506 12.2929 6.70266C12.4804 6.89027 12.7348 6.99566 13 6.99566C13.5304 6.99566 14.0391 7.20645 14.4142 7.58166C14.7893 7.95687 15 8.46576 15 8.99638C15 9.2617 15.1054 9.51614 15.2929 9.70375C15.4804 9.89135 15.7348 9.99675 16 9.99675C16.2652 9.99675 16.5196 9.89135 16.7071 9.70375C16.8946 9.51614 17 9.2617 17 8.99638C17 7.93513 16.5786 6.91735 15.8284 6.16693C15.0783 5.41652 14.0609 4.99494 13 4.99494Z" fill="#DC2626"/>
</svg>
