<svg width="21" height="21" viewBox="0 0 21 21" fill="none" xmlns="http://www.w3.org/2000/svg">
<path d="M10.0664 6.84028C10.5259 6.84028 10.8984 6.47029 10.8984 6.01389C10.8984 5.55749 10.5259 5.1875 10.0664 5.1875C9.60687 5.1875 9.23438 5.55749 9.23438 6.01389C9.23438 6.47029 9.60687 6.84028 10.0664 6.84028Z" fill="url(#paint0_linear_1257_13027)"/>
<path d="M5 14.5455H15V16H5V14.5455ZM8.33333 10.7855L10.66 12.8175L13.9367 9.95564L15 10.9091V8H11.6667L12.7583 8.92727L10.6592 10.7593L8.33333 8.72727L5 11.6364L6.17833 12.6647L8.33333 10.7855Z" fill="url(#paint1_linear_1257_13027)"/>
<path d="M15.6 3.5455H12.9616C12.8824 3.43172 12.7969 3.3221 12.7056 3.21709L12.6976 3.20782C12.1096 2.54681 11.2828 2.1273 10.3856 2.03483C10.1308 1.98839 9.86922 1.98839 9.6144 2.03483C8.71725 2.1273 7.89039 2.54681 7.3024 3.20782L7.2944 3.21709C7.20312 3.32185 7.11766 3.43121 7.0384 3.54473V3.5455H4.4C3.76368 3.54612 3.1536 3.79055 2.70365 4.22516C2.2537 4.65977 2.00064 5.24905 2 5.86368V16.6818C2.00064 17.2965 2.2537 17.8857 2.70365 18.3203C3.1536 18.755 3.76368 18.9994 4.4 19H15.6C16.2363 18.9994 16.8464 18.755 17.2964 18.3203C17.7463 17.8857 17.9994 17.2965 18 16.6818V5.86368C17.9994 5.24905 17.7463 4.65977 17.2964 4.22516C16.8464 3.79055 16.2363 3.54612 15.6 3.5455ZM16.4 16.6818C16.4 16.8868 16.3157 17.0833 16.1657 17.2282C16.0157 17.3731 15.8122 17.4546 15.6 17.4546H4.4C4.18783 17.4546 3.98434 17.3731 3.83431 17.2282C3.68429 17.0833 3.6 16.8868 3.6 16.6818V5.86368C3.6 5.65874 3.68429 5.46219 3.83431 5.31728C3.98434 5.17236 4.18783 5.09095 4.4 5.09095H8.04C8.13181 4.65425 8.37709 4.26164 8.7343 3.97963C9.0915 3.69762 9.53866 3.54357 10 3.54357C10.4613 3.54357 10.9085 3.69762 11.2657 3.97963C11.6229 4.26164 11.8682 4.65425 11.96 5.09095H15.6C15.8122 5.09095 16.0157 5.17236 16.1657 5.31728C16.3157 5.46219 16.4 5.65874 16.4 5.86368V16.6818Z" fill="url(#paint2_linear_1257_13027)"/>
<defs>
<linearGradient id="paint0_linear_1257_13027" x1="10.0664" y1="5.1875" x2="10.0664" y2="6.84028" gradientUnits="userSpaceOnUse">
<stop stop-color="#DC2626"/>
</linearGradient>
<linearGradient id="paint1_linear_1257_13027" x1="10" y1="8" x2="10" y2="16" gradientUnits="userSpaceOnUse">
<stop stop-color="#DC2626"/>
</linearGradient>
<linearGradient id="paint2_linear_1257_13027" x1="10" y1="2" x2="10" y2="19" gradientUnits="userSpaceOnUse">
<stop stop-color="#DC2626"/>
</linearGradient>
</defs>
</svg>
