<svg width="22" height="22" viewBox="0 0 22 22" fill="none" xmlns="http://www.w3.org/2000/svg">
<path d="M4.39922 4.39999C3.81574 4.39999 3.25616 4.63178 2.84358 5.04436C2.431 5.45694 2.19922 6.01652 2.19922 6.59999V7.69999H19.7992V6.59999C19.7992 6.01652 19.5674 5.45694 19.1549 5.04436C18.7423 4.63178 18.1827 4.39999 17.5992 4.39999H4.39922Z" fill="#DC2626"/>
<path fill-rule="evenodd" clip-rule="evenodd" d="M19.7992 9.89999H2.19922V15.4C2.19922 15.9835 2.431 16.543 2.84358 16.9556C3.25616 17.3682 3.81574 17.6 4.39922 17.6H17.5992C18.1827 17.6 18.7423 17.3682 19.1549 16.9556C19.5674 16.543 19.7992 15.9835 19.7992 15.4V9.89999ZM4.39922 14.3C4.39922 14.0083 4.51511 13.7285 4.7214 13.5222C4.92769 13.3159 5.20748 13.2 5.49922 13.2H6.59922C6.89096 13.2 7.17075 13.3159 7.37704 13.5222C7.58333 13.7285 7.69922 14.0083 7.69922 14.3C7.69922 14.5917 7.58333 14.8715 7.37704 15.0778C7.17075 15.2841 6.89096 15.4 6.59922 15.4H5.49922C5.20748 15.4 4.92769 15.2841 4.7214 15.0778C4.51511 14.8715 4.39922 14.5917 4.39922 14.3ZM9.89922 13.2C9.60748 13.2 9.32769 13.3159 9.1214 13.5222C8.91511 13.7285 8.79922 14.0083 8.79922 14.3C8.79922 14.5917 8.91511 14.8715 9.1214 15.0778C9.32769 15.2841 9.60748 15.4 9.89922 15.4H10.9992C11.291 15.4 11.5707 15.2841 11.777 15.0778C11.9833 14.8715 12.0992 14.5917 12.0992 14.3C12.0992 14.0083 11.9833 13.7285 11.777 13.5222C11.5707 13.3159 11.291 13.2 10.9992 13.2H9.89922Z" fill="#DC2626"/>
</svg>
