<svg width="22" height="22" viewBox="0 0 22 22" fill="none" xmlns="http://www.w3.org/2000/svg">
<path d="M2.19922 3.3C2.19922 3.00826 2.31511 2.72847 2.5214 2.52218C2.72769 2.31589 3.00748 2.2 3.29922 2.2H5.66752C5.9279 2.20012 6.17979 2.2926 6.37839 2.46098C6.57699 2.62937 6.70942 2.86275 6.75212 3.1196L7.56612 7.9981C7.60501 8.23044 7.56829 8.46913 7.46136 8.67903C7.35443 8.88894 7.18293 9.05897 6.97212 9.1641L5.26932 10.0144C5.87994 11.5276 6.78934 12.9022 7.94317 14.056C9.09701 15.2099 10.4716 16.1193 11.9848 16.7299L12.8362 15.0271C12.9413 14.8165 13.1111 14.6451 13.3208 14.5382C13.5305 14.4313 13.7689 14.3945 14.0011 14.4331L18.8796 15.2471C19.1365 15.2898 19.3698 15.4222 19.5382 15.6208C19.7066 15.8194 19.7991 16.0713 19.7992 16.3317V18.7C19.7992 18.9917 19.6833 19.2715 19.477 19.4778C19.2707 19.6841 18.991 19.8 18.6992 19.8H16.4992C8.60122 19.8 2.19922 13.398 2.19922 5.5V3.3Z" fill="#DC2626"/>
</svg>
