<svg width="24" height="24" viewBox="0 0 24 24" fill="none" xmlns="http://www.w3.org/2000/svg">
<path fill-rule="evenodd" clip-rule="evenodd" d="M8.18141 7.64285C8.18141 6.67671 8.58373 5.75013 9.29985 5.06697C10.016 4.3838 10.9872 4 12 4C13.0128 4 13.984 4.3838 14.7001 5.06697C15.4163 5.75013 15.8186 6.67671 15.8186 7.64285C15.8186 8.609 15.4163 9.53557 14.7001 10.2187C13.984 10.9019 13.0128 11.2857 12 11.2857C10.9872 11.2857 10.016 10.9019 9.29985 10.2187C8.58373 9.53557 8.18141 8.609 8.18141 7.64285ZM5.0001 19.0612C5.02872 17.3081 5.77879 15.6361 7.08841 14.4061C8.39804 13.176 10.1622 12.4866 12 12.4866C13.8378 12.4866 15.602 13.176 16.9116 14.4061C18.2212 15.6361 18.9713 17.3081 18.9999 19.0612C19.0021 19.1792 18.9682 19.2953 18.9023 19.3952C18.8365 19.4951 18.7415 19.5746 18.6291 19.6238C16.5494 20.5335 14.2879 21.0029 12 21C9.63587 21 7.38969 20.5078 5.37093 19.6238C5.25848 19.5746 5.16352 19.4951 5.09766 19.3952C5.03179 19.2953 4.99789 19.1792 5.0001 19.0612Z" fill="white"/>
</svg>
