<svg width="24" height="24" viewBox="0 0 24 24" fill="none" xmlns="http://www.w3.org/2000/svg">
<path d="M15.0004 7.88461C15.0004 8.64966 14.6843 9.38337 14.1216 9.92434C13.5589 10.4653 12.7958 10.7692 12 10.7692C11.2042 10.7692 10.4411 10.4653 9.8784 9.92434C9.31571 9.38337 8.9996 8.64966 8.9996 7.88461C8.9996 7.11957 9.31571 6.38585 9.8784 5.84488C10.4411 5.30391 11.2042 5 12 5C12.7958 5 13.5589 5.30391 14.1216 5.84488C14.6843 6.38585 15.0004 7.11957 15.0004 7.88461ZM6 18.7446C6.02571 17.231 6.66916 15.7878 7.79158 14.7262C8.914 13.6646 10.4255 13.0696 12 13.0696C13.5745 13.0696 15.086 13.6646 16.2084 14.7262C17.3308 15.7878 17.9743 17.231 18 18.7446C16.1177 19.5744 14.0708 20.0027 12 20C9.85891 20 7.82664 19.5508 6 18.7446Z" stroke="#DC2626" stroke-width="1.5" stroke-linecap="round" stroke-linejoin="round"/>
</svg>
