<svg width="24" height="24" viewBox="0 0 24 24" fill="none" xmlns="http://www.w3.org/2000/svg">
<path fill-rule="evenodd" clip-rule="evenodd" d="M8.23077 7.26C8.23077 6.39539 8.57521 5.5662 9.1883 4.95483C9.8014 4.34346 10.6329 4 11.5 4C12.3671 4 13.1986 4.34346 13.8117 4.95483C14.4248 5.5662 14.7692 6.39539 14.7692 7.26C14.7692 8.1246 14.4248 8.9538 13.8117 9.56516C13.1986 10.1765 12.3671 10.52 11.5 10.52C10.6329 10.52 9.8014 10.1765 9.1883 9.56516C8.57521 8.9538 8.23077 8.1246 8.23077 7.26ZM14.7692 9.868C14.7692 9.17631 15.0448 8.51296 15.5353 8.02386C16.0257 7.53477 16.691 7.26 17.3846 7.26C18.0783 7.26 18.7435 7.53477 19.234 8.02386C19.7245 8.51296 20 9.17631 20 9.868C20 10.5597 19.7245 11.223 19.234 11.7121C18.7435 12.2012 18.0783 12.476 17.3846 12.476C16.691 12.476 16.0257 12.2012 15.5353 11.7121C15.0448 11.223 14.7692 10.5597 14.7692 9.868ZM3 9.868C3 9.17631 3.27555 8.51296 3.76603 8.02386C4.25651 7.53477 4.92174 7.26 5.61538 7.26C6.30903 7.26 6.97426 7.53477 7.46474 8.02386C7.95522 8.51296 8.23077 9.17631 8.23077 9.868C8.23077 10.5597 7.95522 11.223 7.46474 11.7121C6.97426 12.2012 6.30903 12.476 5.61538 12.476C4.92174 12.476 4.25651 12.2012 3.76603 11.7121C3.27555 11.223 3 10.5597 3 9.868ZM6.53949 14.5337C7.07124 13.7026 7.80453 13.0187 8.67157 12.5451C9.5386 12.0714 10.5114 11.8234 11.5 11.824C12.328 11.8232 13.1469 11.9969 13.903 12.3336C14.6591 12.6702 15.3354 13.1624 15.8875 13.7777C16.4397 14.393 16.8553 15.1177 17.1071 15.9043C17.3589 16.6909 17.4413 17.5217 17.3489 18.3422C17.3376 18.4442 17.3023 18.542 17.246 18.6278C17.1896 18.7136 17.1138 18.785 17.0246 18.836C15.3434 19.798 13.4383 20.3028 11.5 20.3C9.49051 20.3 7.60308 19.768 5.97544 18.836C5.88624 18.785 5.81039 18.7136 5.75404 18.6278C5.69769 18.542 5.66243 18.4442 5.65113 18.3422C5.50471 17.0092 5.81804 15.6663 6.53949 14.5346V14.5337Z" fill="white"/>
<path d="M5.08208 14.2539C4.09584 15.7763 3.63633 17.5802 3.77408 19.3889C3.17359 19.2979 2.58299 19.1505 2.01008 18.9489L1.89508 18.9089C1.79248 18.8725 1.70263 18.8071 1.63643 18.7207C1.57023 18.6342 1.53051 18.5305 1.52208 18.4219L1.51208 18.3009C1.47169 17.7989 1.53284 17.2938 1.69188 16.816C1.85093 16.3381 2.10462 15.8971 2.4378 15.5194C2.77099 15.1417 3.17685 14.835 3.63116 14.6176C4.08547 14.4001 4.57893 14.2765 5.08208 14.2539ZM20.2261 19.3889C20.3638 17.5802 19.9043 15.7763 18.9181 14.2539C19.4212 14.2765 19.9147 14.4001 20.369 14.6176C20.8233 14.835 21.2292 15.1417 21.5624 15.5194C21.8955 15.8971 22.1492 16.3381 22.3083 16.816C22.4673 17.2938 22.5285 17.7989 22.4881 18.3009L22.4781 18.4219C22.4695 18.5303 22.4297 18.6338 22.3635 18.7201C22.2973 18.8063 22.2075 18.8716 22.1051 18.9079L21.9901 18.9479C21.4231 19.1479 20.8341 19.2969 20.2261 19.3889Z" fill="white"/>
</svg>
