<svg width="21" height="23" viewBox="0 0 21 23" fill="none" xmlns="http://www.w3.org/2000/svg">
<path d="M14.9255 14.8743C15.3349 14.5682 15.815 14.3952 16.3103 14.3754C16.8056 14.3556 17.2959 14.4899 17.7245 14.7626C18.1531 15.0353 18.5024 15.4353 18.7321 15.9164C18.9618 16.3974 19.0624 16.9399 19.0223 17.481C17.9724 17.8828 16.8573 18.0392 15.7489 17.94C15.7455 16.8538 15.4599 15.7902 14.9255 14.8753C14.4512 14.0605 13.7969 13.3899 13.0231 12.9255C12.2494 12.4612 11.3812 12.2181 10.4989 12.2188C9.61678 12.2183 8.74877 12.4614 7.97518 12.9258C7.2016 13.3901 6.54742 14.0606 6.07317 14.8753M15.748 17.939L15.7489 17.9688C15.7489 18.1844 15.7384 18.3971 15.7165 18.607C14.1287 19.6047 12.3295 20.1282 10.4989 20.125C8.60017 20.125 6.81779 19.573 5.28129 18.607C5.2588 18.3852 5.24799 18.1622 5.24892 17.939M5.24892 17.939C4.14084 18.0418 3.02634 17.886 1.97729 17.4819C1.93735 16.941 2.03801 16.3987 2.26764 15.9178C2.49727 15.4369 2.84649 15.037 3.27492 14.7644C3.70335 14.4917 4.19349 14.3574 4.68867 14.377C5.18385 14.3967 5.66385 14.5694 6.07317 14.8753M5.24892 17.939C5.25206 16.853 5.53909 15.7903 6.07317 14.8753M13.1239 6.46875C13.1239 7.23125 12.8474 7.96252 12.3551 8.50168C11.8628 9.04085 11.1951 9.34375 10.4989 9.34375C9.80273 9.34375 9.13505 9.04085 8.64276 8.50168C8.15048 7.96252 7.87392 7.23125 7.87392 6.46875C7.87392 5.70625 8.15048 4.97499 8.64276 4.43582C9.13505 3.89665 9.80273 3.59375 10.4989 3.59375C11.1951 3.59375 11.8628 3.89665 12.3551 4.43582C12.8474 4.97499 13.1239 5.70625 13.1239 6.46875ZM18.3739 9.34375C18.3739 9.62691 18.323 9.9073 18.2241 10.1689C18.1251 10.4305 17.9801 10.6682 17.7973 10.8684C17.6145 11.0687 17.3974 11.2275 17.1586 11.3359C16.9197 11.4442 16.6637 11.5 16.4052 11.5C16.1466 11.5 15.8906 11.4442 15.6518 11.3359C15.4129 11.2275 15.1959 11.0687 15.0131 10.8684C14.8302 10.6682 14.6852 10.4305 14.5863 10.1689C14.4873 9.9073 14.4364 9.62691 14.4364 9.34375C14.4364 8.77188 14.6438 8.22343 15.0131 7.81905C15.3823 7.41468 15.883 7.1875 16.4052 7.1875C16.9273 7.1875 17.4281 7.41468 17.7973 7.81905C18.1665 8.22343 18.3739 8.77188 18.3739 9.34375ZM6.56142 9.34375C6.56142 9.62691 6.5105 9.9073 6.41156 10.1689C6.31262 10.4305 6.1676 10.6682 5.98479 10.8684C5.80197 11.0687 5.58494 11.2275 5.34608 11.3359C5.10722 11.4442 4.85121 11.5 4.59267 11.5C4.33413 11.5 4.07812 11.4442 3.83926 11.3359C3.6004 11.2275 3.38337 11.0687 3.20055 10.8684C3.01774 10.6682 2.87272 10.4305 2.77378 10.1689C2.67484 9.9073 2.62392 9.62691 2.62392 9.34375C2.62392 8.77188 2.83134 8.22343 3.20055 7.81905C3.56976 7.41468 4.07052 7.1875 4.59267 7.1875C5.11481 7.1875 5.61557 7.41468 5.98479 7.81905C6.354 8.22343 6.56142 8.77188 6.56142 9.34375Z" stroke="#DC2626" stroke-width="1.5" stroke-linecap="round" stroke-linejoin="round"/>
</svg>
