<svg width="22" height="22" viewBox="0 0 22 22" fill="none" xmlns="http://www.w3.org/2000/svg">
<path fill-rule="evenodd" clip-rule="evenodd" d="M13.8452 5.0446C14.0481 4.83448 14.2909 4.66688 14.5593 4.55158C14.8277 4.43628 15.1164 4.37559 15.4085 4.37305C15.7006 4.37051 15.9903 4.42618 16.2607 4.53679C16.531 4.64741 16.7767 4.81077 16.9832 5.01733C17.1898 5.2239 17.3531 5.46953 17.4638 5.7399C17.5744 6.01027 17.63 6.29997 17.6275 6.59208C17.625 6.8842 17.5643 7.17288 17.449 7.44129C17.3337 7.7097 17.1661 7.95246 16.956 8.1554L13.656 11.4554C13.2434 11.8678 12.6839 12.0995 12.1006 12.0995C11.5172 12.0995 10.9577 11.8678 10.5452 11.4554C10.3377 11.255 10.0598 11.1442 9.77141 11.1467C9.483 11.1492 9.2071 11.2649 9.00315 11.4688C8.7992 11.6727 8.68352 11.9486 8.68101 12.2371C8.6785 12.5255 8.78938 12.8033 8.98975 13.0108C9.81487 13.8357 10.9338 14.2991 12.1006 14.2991C13.2673 14.2991 14.3862 13.8357 15.2114 13.0108L18.5114 9.7108C19.3128 8.88095 19.7563 7.7695 19.7463 6.61584C19.7363 5.46217 19.2736 4.35859 18.4578 3.5428C17.642 2.727 16.5384 2.26426 15.3847 2.25423C14.2311 2.24421 13.1196 2.6877 12.2898 3.4892L10.6398 5.1392C10.5347 5.24067 10.4509 5.36205 10.3932 5.49626C10.3356 5.63046 10.3052 5.7748 10.304 5.92086C10.3027 6.06692 10.3305 6.21176 10.3858 6.34695C10.4412 6.48214 10.5228 6.60495 10.6261 6.70824C10.7294 6.81152 10.8522 6.8932 10.9874 6.9485C11.1226 7.00381 11.2674 7.03165 11.4135 7.03038C11.5596 7.02911 11.7039 6.99876 11.8381 6.94111C11.9723 6.88346 12.0937 6.79966 12.1952 6.6946L13.8452 5.0446ZM8.34515 10.5446C8.75771 10.1322 9.31719 9.90047 9.90055 9.90047C10.4839 9.90047 11.0434 10.1322 11.456 10.5446C11.5574 10.6497 11.6788 10.7335 11.813 10.7911C11.9472 10.8488 12.0916 10.8791 12.2376 10.8804C12.3837 10.8816 12.5285 10.8538 12.6637 10.7985C12.7989 10.7432 12.9217 10.6615 13.025 10.5582C13.1283 10.455 13.2099 10.3321 13.2653 10.1969C13.3206 10.0618 13.3484 9.91692 13.3471 9.77086C13.3459 9.6248 13.3155 9.48046 13.2579 9.34626C13.2002 9.21205 13.1164 9.09067 13.0114 8.9892C12.1862 8.16433 11.0673 7.70094 9.90055 7.70094C8.73383 7.70094 7.61487 8.16433 6.78975 8.9892L3.48975 12.2892C3.06951 12.6951 2.73431 13.1806 2.50371 13.7174C2.27311 14.2542 2.15173 14.8316 2.14665 15.4158C2.14157 16.0001 2.2529 16.5795 2.47414 17.1202C2.69537 17.6609 3.02209 18.1522 3.43521 18.5653C3.84834 18.9785 4.33961 19.3052 4.88035 19.5264C5.4211 19.7477 6.00049 19.859 6.58472 19.8539C7.16895 19.8488 7.74631 19.7274 8.28313 19.4968C8.81995 19.2662 9.30547 18.931 9.71135 18.5108L11.3614 16.8608C11.4664 16.7593 11.5502 16.638 11.6079 16.5037C11.6655 16.3695 11.6959 16.2252 11.6971 16.0791C11.6984 15.9331 11.6706 15.7882 11.6153 15.6531C11.5599 15.5179 11.4783 15.395 11.375 15.2918C11.2717 15.1885 11.1489 15.1068 11.0137 15.0515C10.8785 14.9962 10.7337 14.9684 10.5876 14.9696C10.4416 14.9709 10.2972 15.0012 10.163 15.0589C10.0288 15.1165 9.90742 15.2003 9.80595 15.3054L8.15595 16.9554C7.95301 17.1655 7.71025 17.3331 7.44184 17.4484C7.17343 17.5637 6.88475 17.6244 6.59264 17.627C6.30052 17.6295 6.01083 17.5738 5.74045 17.4632C5.47008 17.3526 5.22445 17.1892 5.01788 16.9827C4.81132 16.7761 4.64796 16.5305 4.53734 16.2601C4.42673 15.9897 4.37106 15.7 4.3736 15.4079C4.37614 15.1158 4.43683 14.8271 4.55213 14.5587C4.66743 14.2903 4.83503 14.0475 5.04515 13.8446L8.34515 10.5446Z" fill="#DC2626"/>
</svg>
