<svg width="22" height="22" viewBox="0 0 22 22" fill="none" xmlns="http://www.w3.org/2000/svg">
<path d="M11.0002 8.8C11.8754 8.8 12.7148 8.45232 13.3337 7.83345C13.9525 7.21458 14.3002 6.37521 14.3002 5.5C14.3002 4.62478 13.9525 3.78541 13.3337 3.16654C12.7148 2.54767 11.8754 2.2 11.0002 2.2C10.125 2.2 9.28563 2.54767 8.66676 3.16654C8.04789 3.78541 7.70021 4.62478 7.70021 5.5C7.70021 6.37521 8.04789 7.21458 8.66676 7.83345C9.28563 8.45232 10.125 8.8 11.0002 8.8ZM3.81171 15.9434C3.71012 16.2161 3.69913 16.5142 3.78037 16.7936C3.86162 17.073 4.03076 17.3187 4.26271 17.4944C6.18916 18.9917 8.5603 19.8031 11.0002 19.8C13.5412 19.8 15.882 18.9376 17.7443 17.49C18.2173 17.1237 18.4087 16.4967 18.1931 15.939C17.6346 14.4848 16.6482 13.2342 15.3643 12.3521C14.0803 11.4701 12.559 10.9981 11.0013 10.9985C9.44353 10.9988 7.9225 11.4715 6.63893 12.3541C5.35536 13.2368 4.36959 14.4879 3.81171 15.9423" fill="#D72B1C"/>
</svg>
