<svg width="22" height="22" viewBox="0 0 22 22" fill="none" xmlns="http://www.w3.org/2000/svg">
<path fill-rule="evenodd" clip-rule="evenodd" d="M4.40078 4.4C4.40078 3.81652 4.63257 3.25694 5.04515 2.84436C5.45773 2.43178 6.01731 2.2 6.60078 2.2H15.4008C15.9843 2.2 16.5438 2.43178 16.9564 2.84436C17.369 3.25694 17.6008 3.81652 17.6008 4.4V17.6C17.8925 17.6 18.1723 17.7159 18.3786 17.9222C18.5849 18.1285 18.7008 18.4083 18.7008 18.7C18.7008 18.9917 18.5849 19.2715 18.3786 19.4778C18.1723 19.6841 17.8925 19.8 17.6008 19.8H14.3008C14.009 19.8 13.7293 19.6841 13.523 19.4778C13.3167 19.2715 13.2008 18.9917 13.2008 18.7V16.5C13.2008 16.2083 13.0849 15.9285 12.8786 15.7222C12.6723 15.5159 12.3925 15.4 12.1008 15.4H9.90078C9.60904 15.4 9.32925 15.5159 9.12296 15.7222C8.91667 15.9285 8.80078 16.2083 8.80078 16.5V18.7C8.80078 18.9917 8.68489 19.2715 8.4786 19.4778C8.27231 19.6841 7.99252 19.8 7.70078 19.8H4.40078C4.10904 19.8 3.82925 19.6841 3.62296 19.4778C3.41667 19.2715 3.30078 18.9917 3.30078 18.7C3.30078 18.4083 3.41667 18.1285 3.62296 17.9222C3.82925 17.7159 4.10904 17.6 4.40078 17.6V4.4ZM7.70078 5.5H9.90078V7.7H7.70078V5.5ZM9.90078 9.9H7.70078V12.1H9.90078V9.9ZM12.1008 5.5H14.3008V7.7H12.1008V5.5ZM14.3008 9.9H12.1008V12.1H14.3008V9.9Z" fill="#DC2626"/>
</svg>
