<svg width="21" height="22" viewBox="0 0 21 22" fill="none" xmlns="http://www.w3.org/2000/svg">
<path d="M10.5 0C16.2991 0 21 4.9247 21 11C21 17.0753 16.2991 22 10.5 22C4.70085 22 0 17.0753 0 11C0 4.9247 4.70085 0 10.5 0ZM12.2671 15.345C11.09 15.4167 9.90996 15.4167 8.73285 15.345C8.87565 16.2096 9.0573 16.9884 9.26835 17.6528C9.53295 18.4844 9.82485 19.0784 10.0978 19.4414C10.1902 19.5624 10.332 19.8 10.5021 19.8C10.6543 19.7857 10.8192 19.5503 10.9011 19.4414C11.1741 19.0784 11.467 18.4844 11.7306 17.6528C11.964 16.8987 12.144 16.1272 12.2671 15.345ZM18.3886 14.0305C18.11 14.1559 17.8185 14.2714 17.514 14.377C16.6194 14.6894 15.5736 14.9402 14.427 15.114C14.2844 16.2117 14.049 17.294 13.7235 18.348C13.6227 18.667 13.5125 18.9724 13.3927 19.2643C14.5377 18.8231 15.5774 18.1265 16.44 17.2228C17.3026 16.3192 17.9675 15.2299 18.3886 14.0305ZM2.61135 14.0305C3.03252 15.2299 3.69741 16.3192 4.56002 17.2228C5.42262 18.1265 6.46235 18.8231 7.60725 19.2643C7.48524 18.9637 7.3749 18.658 7.2765 18.348C6.95102 17.294 6.7156 16.2117 6.573 15.114C5.52519 14.9646 4.49213 14.718 3.486 14.377C3.1815 14.2714 2.88995 14.1559 2.61135 14.0305ZM8.4756 8.8792C8.37341 10.291 8.37341 11.709 8.4756 13.1208C9.8217 13.2275 11.1783 13.2275 12.5244 13.1208C12.6266 11.709 12.6266 10.291 12.5244 8.8792C11.1767 8.77215 9.82327 8.77215 8.4756 8.8792ZM14.6475 9.1487C14.7159 10.3819 14.7159 11.6181 14.6475 12.8513C15.3942 12.7223 16.1305 12.5348 16.8504 12.2903C17.6442 12.0131 18.2112 11.7073 18.5577 11.4213C18.6732 11.3256 18.9 11.1749 18.9 10.9978C18.8863 10.8383 18.6616 10.6656 18.5577 10.5798C18.2112 10.2938 17.6442 9.9869 16.8504 9.7108C16.1305 9.46631 15.3942 9.27769 14.6475 9.1487ZM6.3525 9.1487C5.5272 9.2983 4.78485 9.4886 4.1496 9.7097C3.3558 9.9869 2.78985 10.2927 2.4423 10.5787C2.1903 10.7877 2.1147 10.945 2.10315 10.9835C2.0559 11.1485 2.34465 11.3388 2.4423 11.4202C2.7888 11.7062 3.3558 12.0131 4.1496 12.2892C4.78485 12.5114 5.5272 12.7017 6.3525 12.8502C6.28171 11.6178 6.28171 10.3811 6.3525 9.1487ZM7.60725 2.7357C6.46235 3.17692 5.42262 3.87348 4.56002 4.77716C3.69741 5.68084 3.03252 6.77008 2.61135 7.9695C2.88995 7.8441 3.1815 7.7286 3.486 7.623C4.49213 7.28202 5.52519 7.03539 6.573 6.886C6.7389 5.6848 6.9783 4.5892 7.2765 3.652C7.3773 3.333 7.48755 3.02757 7.60725 2.7357ZM13.3927 2.7357C13.5125 3.0283 13.6227 3.33373 13.7235 3.652C14.0217 4.5892 14.2611 5.6848 14.427 6.886C15.5736 7.0598 16.6194 7.3106 17.514 7.623C17.8185 7.7286 18.11 7.8441 18.3886 7.9695C17.9675 6.77008 17.3026 5.68084 16.44 4.77716C15.5774 3.87348 14.5377 3.17692 13.3927 2.7357ZM10.5 2.2C10.354 2.2 10.1724 2.4607 10.0989 2.5586C9.8259 2.9216 9.53295 3.5156 9.2694 4.3472C9.03602 5.10134 8.85702 5.87278 8.7339 6.655C9.91023 6.58084 11.0898 6.58084 12.2661 6.655C12.143 5.87278 11.964 5.10134 11.7306 4.3472C11.467 3.5156 11.1741 2.9227 10.9011 2.5586C10.8276 2.4596 10.647 2.2 10.5 2.2Z" fill="#DC2626"/>
</svg>
