<svg width="22" height="22" viewBox="0 0 22 22" fill="none" xmlns="http://www.w3.org/2000/svg">
<path d="M17.0208 3.58286H13.2762C13.0928 3.05919 12.7512 2.60547 12.2986 2.28446C11.846 1.96345 11.3049 1.79102 10.75 1.79102C10.1951 1.79102 9.65398 1.96345 9.2014 2.28446C8.74882 2.60547 8.40718 3.05919 8.22375 3.58286H4.47917C4.00442 3.58428 3.54953 3.7735 3.21383 4.1092C2.87814 4.44489 2.68892 4.89979 2.6875 5.37453V17.9162C2.68892 18.3909 2.87814 18.8458 3.21383 19.1815C3.54953 19.5172 4.00442 19.7064 4.47917 19.7079H17.0208C17.4956 19.7064 17.9505 19.5172 18.2862 19.1815C18.6219 18.8458 18.8111 18.3909 18.8125 17.9162V5.37453C18.8111 4.89979 18.6219 4.44489 18.2862 4.1092C17.9505 3.7735 17.4956 3.58428 17.0208 3.58286ZM10.75 3.58286C10.9272 3.58286 11.1004 3.6354 11.2477 3.73384C11.395 3.83227 11.5098 3.97218 11.5776 4.13588C11.6454 4.29957 11.6632 4.47969 11.6286 4.65347C11.5941 4.82724 11.5087 4.98686 11.3834 5.11215C11.2582 5.23743 11.0985 5.32275 10.9248 5.35732C10.751 5.39188 10.5709 5.37414 10.4072 5.30634C10.2435 5.23854 10.1036 5.12371 10.0051 4.9764C9.90671 4.82908 9.85417 4.65588 9.85417 4.4787C9.85488 4.24133 9.94948 4.01388 10.1173 3.84603C10.2852 3.67818 10.5126 3.58357 10.75 3.58286ZM8.95833 8.06203L11.4577 10.565L13.7152 8.30749L12.5417 7.1662H16.125V10.7495L14.9819 9.57509L11.4595 13.1002L8.95833 10.5972L6.64171 12.9121L5.375 11.6454L8.95833 8.06203ZM17.0208 17.0204H4.47917V15.2287H17.0208V17.0204Z" fill="white"/>
</svg>
