<svg width="17" height="17" viewBox="0 0 17 17" fill="none" xmlns="http://www.w3.org/2000/svg">
<path d="M7.22813 3.40039H9.77812C9.77812 3.06224 9.6438 2.73794 9.40469 2.49883C9.16558 2.25972 8.84128 2.12539 8.50313 2.12539C8.16497 2.12539 7.84067 2.25972 7.60156 2.49883C7.36245 2.73794 7.22813 3.06224 7.22813 3.40039ZM6.37813 3.40039C6.37813 2.83681 6.60201 2.2963 7.00052 1.89779C7.39904 1.49927 7.93954 1.27539 8.50313 1.27539C9.06671 1.27539 9.60721 1.49927 10.0057 1.89779C10.4042 2.2963 10.6281 2.83681 10.6281 3.40039H14.8781C14.9908 3.40039 15.0989 3.44517 15.1786 3.52487C15.2583 3.60457 15.3031 3.71267 15.3031 3.82539C15.3031 3.93811 15.2583 4.04621 15.1786 4.12591C15.0989 4.20561 14.9908 4.25039 14.8781 4.25039H13.9822L12.9673 13.0428C12.8956 13.6643 12.5979 14.2378 12.1308 14.654C11.6638 15.0703 11.06 15.3003 10.4343 15.3004H6.57193C5.94629 15.3003 5.3425 15.0703 4.87544 14.654C4.40839 14.2378 4.11067 13.6643 4.03893 13.0428L3.02402 4.25039H2.12813C2.01541 4.25039 1.90731 4.20561 1.8276 4.12591C1.7479 4.04621 1.70312 3.93811 1.70312 3.82539C1.70312 3.71267 1.7479 3.60457 1.8276 3.52487C1.90731 3.44517 2.01541 3.40039 2.12813 3.40039H6.37813ZM7.65313 6.80039C7.65313 6.68767 7.60835 6.57957 7.52865 6.49987C7.44894 6.42017 7.34084 6.37539 7.22813 6.37539C7.11541 6.37539 7.00731 6.42017 6.9276 6.49987C6.8479 6.57957 6.80313 6.68767 6.80313 6.80039V11.9004C6.80313 12.0131 6.8479 12.1212 6.9276 12.2009C7.00731 12.2806 7.11541 12.3254 7.22813 12.3254C7.34084 12.3254 7.44894 12.2806 7.52865 12.2009C7.60835 12.1212 7.65313 12.0131 7.65313 11.9004V6.80039ZM9.77812 6.37539C9.66541 6.37539 9.55731 6.42017 9.4776 6.49987C9.3979 6.57957 9.35313 6.68767 9.35313 6.80039V11.9004C9.35313 12.0131 9.3979 12.1212 9.4776 12.2009C9.55731 12.2806 9.66541 12.3254 9.77812 12.3254C9.89084 12.3254 9.99894 12.2806 10.0786 12.2009C10.1583 12.1212 10.2031 12.0131 10.2031 11.9004V6.80039C10.2031 6.68767 10.1583 6.57957 10.0786 6.49987C9.99894 6.42017 9.89084 6.37539 9.77812 6.37539Z" fill="#DC2626"/>
</svg>
