<svg width="16" height="16" viewBox="0 0 16 16" fill="none" xmlns="http://www.w3.org/2000/svg">
<path d="M13.1879 7.99967C13.1879 6.62444 12.6416 5.30553 11.6692 4.33309C10.6967 3.36065 9.37784 2.81434 8.0026 2.81434C6.62737 2.81434 5.30846 3.36065 4.33602 4.33309C3.36358 5.30553 2.81727 6.62444 2.81727 7.99967C2.81727 9.37491 3.36358 10.6938 4.33602 11.6663C5.30846 12.6387 6.62737 13.185 8.0026 13.185C9.37784 13.185 10.6967 12.6387 11.6692 11.6663C12.6416 10.6938 13.1879 9.37491 13.1879 7.99967ZM9.70127 6.36501C9.77 6.29628 9.85158 6.24177 9.94138 6.20457C10.0312 6.16738 10.1274 6.14824 10.2246 6.14824C10.3218 6.14824 10.418 6.16738 10.5078 6.20457C10.5976 6.24177 10.6792 6.29628 10.7479 6.36501C10.8167 6.43373 10.8712 6.51532 10.9084 6.60512C10.9456 6.69491 10.9647 6.79115 10.9647 6.88834C10.9647 6.98553 10.9456 7.08177 10.9084 7.17157C10.8712 7.26136 10.8167 7.34295 10.7479 7.41167L8.5266 9.63434C8.45786 9.70328 8.37619 9.75797 8.28627 9.79529C8.19636 9.83261 8.09996 9.85182 8.0026 9.85182C7.90525 9.85182 7.80885 9.83261 7.71893 9.79529C7.62902 9.75797 7.54735 9.70328 7.4786 9.63434L5.2566 7.41301L5.20594 7.35634C5.08903 7.21433 5.0292 7.03388 5.03812 6.85015C5.04703 6.66643 5.12405 6.49261 5.25415 6.36259C5.38426 6.23257 5.55813 6.15566 5.74186 6.14686C5.92558 6.13807 6.106 6.19801 6.24794 6.31501L6.30394 6.36567L8.0026 8.06301L9.70127 6.36501ZM14.6693 7.99967C14.6693 11.6817 11.6846 14.6663 8.0026 14.6663C4.3206 14.6663 1.33594 11.6817 1.33594 7.99967C1.33594 4.31767 4.3206 1.33301 8.0026 1.33301C11.6846 1.33301 14.6693 4.31767 14.6693 7.99967Z" fill="#CA2323"/>
</svg>
