<svg width="11" height="25" viewBox="0 0 11 25" fill="none" xmlns="http://www.w3.org/2000/svg">
<path d="M7.5 6C8.88071 6 10 4.65685 10 3C10 1.34315 8.88071 0 7.5 0C6.11929 0 5 1.34315 5 3C5 4.65685 6.11929 6 7.5 6Z" fill="#DC2626"/>
<path d="M10.6945 18.7213C10.6113 18.6605 10.5178 18.6183 10.4194 18.5973C10.3211 18.5763 10.2198 18.5769 10.1216 18.599C10.0235 18.6211 9.93037 18.6643 9.84776 18.7261C9.76516 18.7879 9.69475 18.867 9.64064 18.9588C8.91294 20.1308 8.02148 21.1721 6.99846 22.0451C6.75005 22.2498 5.82416 23.0275 5.43273 22.8638C5.16174 22.7737 5.31981 22.1925 5.37251 21.9469L5.77147 20.6616C5.93707 20.1376 8.82013 10.8376 9.13629 9.77339C9.603 8.21794 9.39975 6.68704 7.26945 7.05544C6.68983 7.12093 0.810801 7.94778 0.705416 7.95596C0.606562 7.96295 0.509943 7.99105 0.421073 8.03865C0.332203 8.08624 0.252824 8.15241 0.187468 8.23337C0.122111 8.31433 0.0720573 8.4085 0.0401641 8.5105C0.00827092 8.6125 -0.00483688 8.72033 0.00158859 8.82784C0.00801406 8.93535 0.0338474 9.04042 0.0776133 9.13707C0.121379 9.23372 0.18222 9.32005 0.256664 9.39113C0.331107 9.46221 0.417694 9.51665 0.511482 9.55133C0.605269 9.58602 0.704421 9.60027 0.803274 9.59328C0.803274 9.59328 3.06154 9.27401 3.30995 9.24945C3.43719 9.23594 3.56531 9.26276 3.67884 9.32667C3.79238 9.39059 3.88648 9.48887 3.9498 9.60966C4.08619 10.0682 4.06751 10.5647 3.8971 11.0096C3.70139 11.8282 0.607558 21.3083 0.509699 21.8568C0.404741 22.3158 0.433881 22.799 0.593072 23.2391C0.752262 23.6793 1.03359 24.0546 1.39795 24.3128C2.08184 24.8085 2.89613 25.0472 3.71644 24.9923C4.5141 24.9823 5.30299 24.8101 6.04246 24.4847C7.91682 23.666 9.87399 21.4884 10.9053 19.7774C10.9941 19.6036 11.0217 19.4005 10.9829 19.2062C10.9441 19.0118 10.8416 18.8395 10.6945 18.7213Z" fill="#DC2626"/>
</svg>
