<svg width="19" height="19" viewBox="0 0 19 19" fill="none" xmlns="http://www.w3.org/2000/svg">
<g clip-path="url(#clip0_1300_2196)">
<path fill-rule="evenodd" clip-rule="evenodd" d="M4.82616 0.93067C4.7228 0.93009 4.62337 0.970678 4.54987 1.04345C4.47638 1.11622 4.43477 1.21522 4.43448 1.31858V3.26768H1.31919C1.10407 3.26768 0.929688 3.44206 0.929688 3.65718V17.6793C0.930557 17.8933 1.10378 18.0665 1.31759 18.0674H17.6784C17.8923 18.0665 18.0656 17.8933 18.0664 17.6793V6.80702C18.0674 6.79586 18.0679 6.7847 18.0679 6.77354V3.6575C18.0679 3.44238 17.8935 3.268 17.6784 3.268H14.5616V1.3189C14.5608 1.10509 14.3875 0.931853 14.1737 0.930999H12.6148C12.3999 0.930129 12.2247 1.10394 12.2239 1.3189V3.268H6.77252V1.3189C6.77165 1.10393 6.59654 0.930109 6.38143 0.930999L4.82616 0.93067ZM5.21421 1.71041H5.99321V4.82571H5.21421V1.71041ZM13.0027 1.71041H13.7825V4.82571H13.0042V3.65721C13.004 3.64851 13.0035 3.63996 13.0027 3.63126L13.0027 1.71041ZM1.70886 4.04671H4.43466V5.21521C4.43422 5.31914 4.47539 5.41888 4.54888 5.49237C4.62252 5.56587 4.7224 5.60674 4.82634 5.60616H6.38129C6.57206 5.60703 6.73528 5.46947 6.76704 5.28131C6.76907 5.26957 6.77067 5.25754 6.77154 5.24565C6.77168 5.24464 6.77168 5.24362 6.77154 5.24261C6.77212 5.23347 6.77241 5.22434 6.77241 5.21521V4.04671H12.2238V5.21521C12.2233 5.319 12.2645 5.41873 12.3379 5.49208C12.4114 5.56557 12.5109 5.60659 12.6147 5.60616H14.1736C14.2519 5.60573 14.3283 5.58152 14.3926 5.53701H14.3934C14.404 5.52962 14.4141 5.52179 14.4238 5.51339C14.434 5.50498 14.4435 5.49614 14.4528 5.48671C14.4616 5.47729 14.4701 5.46743 14.4779 5.45714C14.486 5.44714 14.4935 5.4367 14.5006 5.42583C14.5147 5.4038 14.5264 5.38031 14.5357 5.35596C14.5531 5.31103 14.5622 5.26333 14.5622 5.21521V4.04671H17.2888V6.38215H1.70879L1.70886 4.04671ZM1.70959 7.16274H5.21438V11.8367H1.70959V7.16274ZM5.99349 7.16274H9.11024V11.8367H5.99349V7.16274ZM9.88924 7.16274H13.0029V11.8367H9.88924V7.16274ZM13.7828 7.16274H17.2906V11.8367H13.7828V7.16274ZM1.70959 12.6156H5.21438V17.2914H1.70959V12.6156ZM5.99349 12.6156H9.11024V17.2914H5.99349V12.6156ZM9.88924 12.6156H13.0029V17.2914H9.88924V12.6156ZM13.7828 12.6156H17.2906V17.2914H13.7828V12.6156Z" fill="#DC2626"/>
</g>
<defs>
<clipPath id="clip0_1300_2196">
<rect width="19" height="19" fill="white"/>
</clipPath>
</defs>
</svg>
