<svg width="24" height="23" viewBox="0 0 24 23" fill="none" xmlns="http://www.w3.org/2000/svg">
<path fill-rule="evenodd" clip-rule="evenodd" d="M16.6756 11.5004C16.6756 11.2717 16.5847 11.0523 16.4229 10.8905C16.2612 10.7288 16.0418 10.6379 15.8131 10.6379H3.19418L5.44931 8.70592C5.5354 8.63222 5.60612 8.54229 5.65744 8.44126C5.70877 8.34023 5.73969 8.23008 5.74845 8.1171C5.75721 8.00412 5.74362 7.89052 5.70848 7.78279C5.67333 7.67505 5.61731 7.5753 5.54361 7.48922C5.46992 7.40314 5.37999 7.33241 5.27896 7.28109C5.17793 7.22976 5.06778 7.19884 4.9548 7.19008C4.84182 7.18132 4.72822 7.19491 4.62049 7.23005C4.51275 7.2652 4.413 7.32122 4.32692 7.39492L0.30194 10.8449C0.207255 10.9259 0.131236 11.0264 0.0791133 11.1396C0.0269901 11.2527 0 11.3758 0 11.5004C0 11.625 0.0269901 11.7481 0.0791133 11.8613C0.131236 11.9744 0.207255 12.0749 0.30194 12.1559L4.32692 15.6059C4.50077 15.7548 4.72662 15.8284 4.9548 15.8108C5.18297 15.7931 5.39478 15.6855 5.54361 15.5116C5.69245 15.3378 5.76613 15.1119 5.74845 14.8837C5.73076 14.6556 5.62316 14.4438 5.44931 14.2949L3.19533 12.3629H15.8131C16.0418 12.3629 16.2612 12.272 16.4229 12.1103C16.5847 11.9485 16.6756 11.7292 16.6756 11.5004Z" fill="#DC2626"/>
<path d="M8.91406 6.9C8.91406 7.7073 8.91406 8.11095 9.10841 8.4019C9.19212 8.527 9.29956 8.63445 9.42466 8.71815C9.71561 8.9125 10.1193 8.9125 10.9266 8.9125H15.814C16.5003 8.9125 17.1584 9.18511 17.6437 9.67036C18.1289 10.1556 18.4015 10.8138 18.4015 11.5C18.4015 12.1862 18.1289 12.8444 17.6437 13.3296C17.1584 13.8149 16.5003 14.0875 15.814 14.0875H10.9266C10.1193 14.0875 9.71561 14.0875 9.42466 14.2807C9.29945 14.3647 9.192 14.4726 9.10841 14.5981C8.91406 14.8891 8.91406 15.2927 8.91406 16.1C8.91406 19.3522 8.91406 20.9795 9.92491 21.9892C10.9346 23 12.5607 23 15.8129 23H16.9629C20.2174 23 21.8423 23 22.8531 21.9892C23.864 20.9795 23.864 19.3522 23.864 16.1V6.9C23.864 3.6478 23.864 2.02055 22.8531 1.01085C21.8423 0.00114981 20.2162 0 16.964 0H15.814C12.5607 0 10.9346 -1.09673e-07 9.92491 1.01085C8.91406 2.02055 8.91406 3.6478 8.91406 6.9Z" fill="#DC2626"/>
</svg>
