<svg width="15" height="17" viewBox="0 0 15 17" fill="none" xmlns="http://www.w3.org/2000/svg">
<path fill-rule="evenodd" clip-rule="evenodd" d="M7.5 0C6.22128 0 4.99493 0.447766 4.09073 1.2448C3.18654 2.04183 2.67857 3.12283 2.67857 4.25V7.55556H2.14286C1.57454 7.55556 1.02949 7.75456 0.627628 8.1088C0.225765 8.46303 0 8.94348 0 9.44444V15.1111C0 15.6121 0.225765 16.0925 0.627628 16.4468C1.02949 16.801 1.57454 17 2.14286 17H12.8571C13.4255 17 13.9705 16.801 14.3724 16.4468C14.7742 16.0925 15 15.6121 15 15.1111V9.44444C15 8.94348 14.7742 8.46303 14.3724 8.1088C13.9705 7.75456 13.4255 7.55556 12.8571 7.55556H12.3214V4.25C12.3214 3.12283 11.8135 2.04183 10.9093 1.2448C10.0051 0.447766 8.77872 0 7.5 0ZM10.7143 7.55556V4.25C10.7143 3.49855 10.3756 2.77788 9.77284 2.24653C9.17005 1.71518 8.35248 1.41667 7.5 1.41667C6.64752 1.41667 5.82995 1.71518 5.22716 2.24653C4.62436 2.77788 4.28571 3.49855 4.28571 4.25V7.55556H10.7143Z" fill="#D72B1C"/>
</svg>
