<svg width="35" height="25" viewBox="0 0 35 25" fill="none" xmlns="http://www.w3.org/2000/svg">
<path d="M0 25V20.625C0 19.7396 0.232273 18.9261 0.696818 18.1844C1.16136 17.4427 1.77758 16.8761 2.54545 16.4844C4.18939 15.6771 5.85985 15.0719 7.55682 14.6688C9.25379 14.2656 10.9773 14.0636 12.7273 14.0625C14.4773 14.0615 16.2008 14.2636 17.8977 14.6688C19.5947 15.074 21.2652 15.6792 22.9091 16.4844C23.678 16.875 24.2948 17.4417 24.7593 18.1844C25.2239 18.9271 25.4556 19.7406 25.4545 20.625V25H0ZM28.6364 25V20.3125C28.6364 19.1667 28.3118 18.0662 27.6627 17.011C27.0136 15.9557 26.092 15.0511 24.8977 14.2969C26.25 14.4531 27.5227 14.7203 28.7159 15.0985C29.9091 15.4766 31.0227 15.9386 32.0568 16.4844C33.0114 17.0052 33.7405 17.5844 34.2443 18.2219C34.7481 18.8594 35 19.5563 35 20.3125V25H28.6364ZM12.7273 12.5C10.9773 12.5 9.47917 11.888 8.23295 10.6641C6.98674 9.44013 6.36364 7.96878 6.36364 6.25003C6.36364 4.53128 6.98674 3.05993 8.23295 1.83598C9.47917 0.612019 10.9773 4.00635e-05 12.7273 4.00635e-05C14.4773 4.00635e-05 15.9754 0.612019 17.2216 1.83598C18.4678 3.05993 19.0909 4.53128 19.0909 6.25003C19.0909 7.96878 18.4678 9.44013 17.2216 10.6641C15.9754 11.888 14.4773 12.5 12.7273 12.5ZM28.6364 6.25003C28.6364 7.96878 28.0133 9.44013 26.767 10.6641C25.5208 11.888 24.0227 12.5 22.2727 12.5C21.9811 12.5 21.6098 12.4677 21.1591 12.4031C20.7083 12.3386 20.3371 12.2667 20.0455 12.1875C20.7614 11.3542 21.3118 10.4297 21.6968 9.41409C22.0818 8.39846 22.2738 7.34378 22.2727 6.25003C22.2717 5.15628 22.0797 4.1016 21.6968 3.08597C21.3139 2.07035 20.7635 1.14587 20.0455 0.312539C20.4167 0.182331 20.7879 0.097436 21.1591 0.0578528C21.5303 0.0182695 21.9015 -0.0010016 22.2727 4.00635e-05C24.0227 4.00635e-05 25.5208 0.612019 26.767 1.83598C28.0133 3.05993 28.6364 4.53128 28.6364 6.25003Z" fill="white"/>
</svg>
