<svg width="17" height="17" viewBox="0 0 17 17" fill="none" xmlns="http://www.w3.org/2000/svg">
<path d="M12.7526 7.08301H9.91927V4.24967C9.91927 3.87395 9.77002 3.51362 9.50434 3.24794C9.23866 2.98226 8.87833 2.83301 8.5026 2.83301C8.12688 2.83301 7.76655 2.98226 7.50087 3.24794C7.23519 3.51362 7.08594 3.87395 7.08594 4.24967L7.13623 7.08301H4.2526C3.87688 7.08301 3.51655 7.23226 3.25087 7.49794C2.98519 7.76362 2.83594 8.12395 2.83594 8.49967C2.83594 8.8754 2.98519 9.23573 3.25087 9.50141C3.51655 9.76709 3.87688 9.91634 4.2526 9.91634L7.13623 9.86605L7.08594 12.7497C7.08594 13.1254 7.23519 13.4857 7.50087 13.7514C7.76655 14.0171 8.12688 14.1663 8.5026 14.1663C8.87833 14.1663 9.23866 14.0171 9.50434 13.7514C9.77002 13.4857 9.91927 13.1254 9.91927 12.7497V9.86605L12.7526 9.91634C13.1283 9.91634 13.4887 9.76709 13.7543 9.50141C14.02 9.23573 14.1693 8.8754 14.1693 8.49967C14.1693 8.12395 14.02 7.76362 13.7543 7.49794C13.4887 7.23226 13.1283 7.08301 12.7526 7.08301Z" fill="white"/>
</svg>
