<svg width="19" height="20" viewBox="0 0 19 20" fill="none" xmlns="http://www.w3.org/2000/svg">
<path d="M0 4.28571C0 3.14907 0.428953 2.05898 1.19249 1.25526C1.95603 0.451529 2.99162 0 4.07143 0H14.9286C16.0084 0 17.044 0.451529 17.8075 1.25526C18.571 2.05898 19 3.14907 19 4.28571V15.7143C19 16.8509 18.571 17.941 17.8075 18.7447C17.044 19.5485 16.0084 20 14.9286 20H4.07143C2.99162 20 1.95603 19.5485 1.19249 18.7447C0.428953 17.941 0 16.8509 0 15.7143V4.28571ZM8.62329 5.86286C8.7507 5.72873 8.82229 5.54682 8.82229 5.35714C8.82229 5.16746 8.7507 4.98555 8.62329 4.85143C8.49587 4.7173 8.32305 4.64195 8.14286 4.64195C7.96266 4.64195 7.78985 4.7173 7.66243 4.85143L5.74614 6.86857L5.20736 6.35143C5.07349 6.23098 4.90038 6.17004 4.7246 6.18148C4.54883 6.19291 4.38417 6.27583 4.26541 6.41271C4.14665 6.54959 4.0831 6.72971 4.08818 6.91501C4.09326 7.10031 4.16658 7.27627 4.29264 7.40571L5.3105 8.38429C5.43947 8.50789 5.6087 8.57447 5.78306 8.57021C5.95743 8.56595 6.12354 8.49119 6.24693 8.36143L8.62329 5.86286ZM8.62329 11.9943C8.56025 11.9278 8.48537 11.875 8.40293 11.839C8.32049 11.803 8.23211 11.7844 8.14286 11.7844C8.0536 11.7844 7.96522 11.803 7.88278 11.839C7.80034 11.875 7.72546 11.9278 7.66243 11.9943L5.74614 14.0114L5.20736 13.4943C5.07349 13.3738 4.90038 13.3129 4.7246 13.3243C4.54883 13.3358 4.38417 13.4187 4.26541 13.5556C4.14665 13.6925 4.0831 13.8726 4.08818 14.0579C4.09326 14.2432 4.16658 14.4191 4.29264 14.5486L5.3105 15.5271C5.4393 15.6509 5.60842 15.7178 5.78279 15.7138C5.95715 15.7098 6.12337 15.6353 6.24693 15.5057L8.62193 13.0057C8.74914 12.8718 8.82061 12.6901 8.82061 12.5007C8.82061 12.3113 8.74914 12.1297 8.62193 11.9957M10.8571 12.8571C10.6772 12.8571 10.5046 12.9324 10.3773 13.0664C10.2501 13.2003 10.1786 13.382 10.1786 13.5714C10.1786 13.7609 10.2501 13.9426 10.3773 14.0765C10.5046 14.2105 10.6772 14.2857 10.8571 14.2857H14.25C14.43 14.2857 14.6026 14.2105 14.7298 14.0765C14.8571 13.9426 14.9286 13.7609 14.9286 13.5714C14.9286 13.382 14.8571 13.2003 14.7298 13.0664C14.6026 12.9324 14.43 12.8571 14.25 12.8571H10.8571ZM10.1786 6.42857C10.1786 6.61801 10.2501 6.79969 10.3773 6.93365C10.5046 7.0676 10.6772 7.14286 10.8571 7.14286H14.25C14.43 7.14286 14.6026 7.0676 14.7298 6.93365C14.8571 6.79969 14.9286 6.61801 14.9286 6.42857C14.9286 6.23913 14.8571 6.05745 14.7298 5.9235C14.6026 5.78954 14.43 5.71429 14.25 5.71429H10.8571C10.6772 5.71429 10.5046 5.78954 10.3773 5.9235C10.2501 6.05745 10.1786 6.23913 10.1786 6.42857Z" fill="#DC2626"/>
</svg>
