<svg width="34" height="43" viewBox="0 0 34 43" fill="none" xmlns="http://www.w3.org/2000/svg">
<path fill-rule="evenodd" clip-rule="evenodd" d="M7.25362 2.11625C6.67004 3.45146 6.36932 4.89235 6.37027 6.34873C6.37027 7.47126 6.81771 8.54781 7.61415 9.34156C8.41059 10.1353 9.49079 10.5812 10.6171 10.5812H23.3577C24.484 10.5812 25.5642 10.1353 26.3606 9.34156C27.1571 8.54781 27.6045 7.47126 27.6045 6.34873C27.6045 4.84408 27.2903 3.41139 26.7212 2.11625H29.7279C30.8543 2.11625 31.9345 2.56217 32.7309 3.35591C33.5274 4.14966 33.9748 5.22621 33.9748 6.34873V38.0924C33.9748 39.2149 33.5274 40.2915 32.7309 41.0852C31.9345 41.879 30.8543 42.3249 29.7279 42.3249H4.24685C3.12051 42.3249 2.04031 41.879 1.24387 41.0852C0.447434 40.2915 0 39.2149 0 38.0924V6.34873C0 5.22621 0.447434 4.14966 1.24387 3.35591C2.04031 2.56217 3.12051 2.11625 4.24685 2.11625H7.25362ZM16.9874 25.3949H10.6171C10.054 25.3949 9.51385 25.6179 9.11564 26.0148C8.71742 26.4116 8.4937 26.9499 8.4937 27.5112C8.4937 28.0724 8.71742 28.6107 9.11564 29.0076C9.51385 29.4045 10.054 29.6274 10.6171 29.6274H16.9874C17.5506 29.6274 18.0907 29.4045 18.4889 29.0076C18.8871 28.6107 19.1108 28.0724 19.1108 27.5112C19.1108 26.9499 18.8871 26.4116 18.4889 26.0148C18.0907 25.6179 17.5506 25.3949 16.9874 25.3949ZM23.3577 16.93H10.6171C10.0759 16.9306 9.55534 17.1371 9.1618 17.5074C8.76825 17.8777 8.53142 18.3837 8.4997 18.9222C8.46799 19.4606 8.64377 19.9909 8.99114 20.4045C9.33851 20.8181 9.83125 21.0839 10.3687 21.1476L10.6171 21.1625H23.3577C23.9208 21.1625 24.4609 20.9395 24.8592 20.5426C25.2574 20.1457 25.4811 19.6075 25.4811 19.0462C25.4811 18.4849 25.2574 17.9467 24.8592 17.5498C24.4609 17.1529 23.9208 16.93 23.3577 16.93ZM16.9874 0C17.8837 2.02399e-05 18.7698 0.188523 19.588 0.553189C20.4061 0.917855 21.1379 1.45048 21.7354 2.11625C22.6442 3.12781 23.2303 4.4293 23.3386 5.86623L23.3577 6.34873H10.6171C10.6171 4.81446 11.1628 3.40715 12.0717 2.31094L12.2394 2.11625C13.4073 0.816871 15.1018 0 16.9874 0Z" fill="white"/>
</svg>
