<svg width="21" height="21" viewBox="0 0 21 21" fill="none" xmlns="http://www.w3.org/2000/svg">
<path d="M20.0375 18.55L16.45 14.9625C16.8 14.0875 16.625 12.95 15.8375 12.25C15.05 11.4625 13.9125 11.2875 12.95 11.725L14.6125 13.3875L13.3875 14.6125L11.6375 12.8625C11.2 13.825 11.375 14.9625 12.1625 15.8375C12.95 16.625 14 16.8 14.875 16.45L18.4625 20.0375C18.6375 20.2125 18.9 20.2125 18.9875 20.0375L19.8625 19.1625C20.125 18.9 20.125 18.6375 20.0375 18.55ZM8.75 10.5C10.675 10.5 12.25 8.925 12.25 7C12.25 5.075 10.675 3.5 8.75 3.5C6.825 3.5 5.25 5.075 5.25 7C5.25 8.925 6.825 10.5 8.75 10.5ZM8.75 5.25C9.7125 5.25 10.5 6.0375 10.5 7C10.5 7.9625 9.7125 8.75 8.75 8.75C7.7875 8.75 7 7.9625 7 7C7 6.0375 7.7875 5.25 8.75 5.25ZM11.375 17.5H1.75V14.875C1.75 12.5125 6.3875 11.375 8.75 11.375C9.1875 11.375 9.8 11.4625 10.4125 11.55C10.0625 11.9875 9.8875 12.5125 9.7125 13.125C9.3625 13.125 9.1 13.0375 8.75 13.0375C6.125 13.0375 3.4125 14.35 3.4125 14.875V15.8375H10.0625C10.325 16.5375 10.85 17.0625 11.375 17.5Z" fill="url(#paint0_linear_1516_14547)"/>
<defs>
<linearGradient id="paint0_linear_1516_14547" x1="10.9199" y1="3.5" x2="10.9199" y2="20.1687" gradientUnits="userSpaceOnUse">
<stop stop-color="#DC2626"/>
</linearGradient>
</defs>
</svg>
