<svg width="19" height="20" viewBox="0 0 19 20" fill="none" xmlns="http://www.w3.org/2000/svg">
<path d="M7.89326 0C6.69702 0 5.54977 0.507377 4.7039 1.41051C3.85803 2.31365 3.38283 3.53857 3.38283 4.8158C3.38283 6.09302 3.85803 7.31794 4.7039 8.22108C5.54977 9.12421 6.69702 9.63159 7.89326 9.63159C9.0895 9.63159 10.2367 9.12421 11.0826 8.22108C11.9285 7.31794 12.4037 6.09302 12.4037 4.8158C12.4037 3.53857 11.9285 2.31365 11.0826 1.41051C10.2367 0.507377 9.0895 0 7.89326 0ZM2.26537 10.8355C1.96835 10.8341 1.674 10.8953 1.39921 11.0157C1.12443 11.1361 0.874614 11.3132 0.664122 11.537C0.45363 11.7607 0.286603 12.0266 0.172634 12.3195C0.0586646 12.6123 -3.00718e-06 12.9263 1.15609e-10 13.2434C1.15609e-10 15.2793 0.939298 16.8144 2.40744 17.8148C3.85304 18.7985 5.80155 19.2632 7.89326 19.2632C8.35708 19.2632 8.81189 19.2403 9.25767 19.1946C8.37265 18.0198 7.89114 16.557 7.89326 15.0494C7.89326 13.4481 8.42549 11.9793 9.31066 10.8355H2.26537ZM9.7369 14.3511C10.0281 14.2715 10.3014 14.1307 10.5409 13.9368C10.7804 13.7428 10.9811 13.4997 11.1313 13.2218C11.2816 12.9439 11.3782 12.6367 11.4157 12.3182C11.4531 11.9998 11.4306 11.6767 11.3494 11.3677L11.1746 10.6971C11.4618 10.4619 11.7704 10.2625 12.1004 10.0987L12.4815 10.5297C12.6922 10.7685 12.9465 10.9587 13.2286 11.0888C13.5106 11.2189 13.8147 11.286 14.1219 11.2862C14.4292 11.2863 14.7333 11.2193 15.0154 11.0895C15.2976 10.9596 15.5519 10.7695 15.7628 10.5309L16.1282 10.1168C16.465 10.2869 16.7788 10.4948 17.0697 10.7404L16.9277 11.2497C16.8397 11.564 16.8128 11.8941 16.8486 12.2199C16.8844 12.5457 16.9822 12.8602 17.1359 13.1442C17.2897 13.4281 17.4961 13.6756 17.7426 13.8713C17.9891 14.0671 18.2705 14.207 18.5695 14.2824L18.963 14.3812C19.0082 14.7877 19.012 15.1982 18.9743 15.6056L18.4556 15.7464C18.1642 15.8258 17.8906 15.9666 17.6509 16.1606C17.4112 16.3545 17.2103 16.5977 17.0599 16.8758C16.9096 17.1539 16.8128 17.4613 16.7754 17.7799C16.738 18.0985 16.7606 18.4219 16.842 18.731L17.0179 19.4004C16.73 19.6364 16.421 19.8363 16.091 20L15.7098 19.569C15.4992 19.3303 15.2451 19.1402 14.9632 19.0101C14.6812 18.88 14.3774 18.8128 14.0702 18.8126C13.7631 18.8124 13.4591 18.8791 13.177 19.0088C12.8949 19.1384 12.6406 19.3282 12.4296 19.5666L12.0632 19.9807C11.728 19.812 11.4121 19.6027 11.1216 19.3571L11.2648 18.849C11.353 18.5347 11.38 18.2044 11.3443 17.8785C11.3085 17.5526 11.2108 17.2379 11.0571 16.9538C10.9033 16.6697 10.6968 16.4221 10.4502 16.2263C10.2036 16.0305 9.9221 15.8905 9.62301 15.8151L9.22835 15.7163C9.1832 15.3102 9.17942 14.9001 9.21707 14.4931L9.7369 14.3511ZM15.2227 15.0494C15.2227 14.7301 15.1039 14.4238 14.8924 14.198C14.681 13.9723 14.3942 13.8454 14.0951 13.8454C13.796 13.8454 13.5092 13.9723 13.2978 14.198C13.0863 14.4238 12.9675 14.7301 12.9675 15.0494C12.9675 15.3687 13.0863 15.6749 13.2978 15.9007C13.5092 16.1265 13.796 16.2533 14.0951 16.2533C14.3942 16.2533 14.681 16.1265 14.8924 15.9007C15.1039 15.6749 15.2227 15.3687 15.2227 15.0494Z" fill="#DC2626"/>
</svg>
