<svg width="20" height="21" viewBox="0 0 20 21" fill="none" xmlns="http://www.w3.org/2000/svg">
<path d="M0.529105 2.87375C0.45577 3.31441 0.80831 4.54347 1.42943 4.17837L5.33032 1.19954H5.33014C5.4784 1.08611 5.51145 0.879074 5.4056 0.72638C5.14389 0.351029 4.73712 0.0979488 4.27994 0.0258702C3.82294 -0.0462127 3.35591 0.0691201 2.98798 0.345119L1.16715 1.73555C0.801887 2.01068 0.570547 2.42339 0.529064 2.87378L0.529105 2.87375ZM1.60315 2.28894L3.42647 0.897127C3.59152 0.771895 3.79368 0.702764 4.00235 0.700332C4.21105 0.697727 4.4148 0.762165 4.58303 0.883578L1.3029 3.38876C1.22497 3.19822 1.21225 2.98788 1.26632 2.78968C1.32057 2.59132 1.43863 2.41557 1.60315 2.28894Z" fill="#DC2626"/>
<path d="M18.5256 4.25252C18.6277 4.25252 18.7251 4.20927 18.7926 4.13388C19.0978 3.79188 19.2467 3.34169 19.2047 2.88849C19.1626 2.43548 18.9334 2.01915 18.5704 1.73693L16.7496 0.347914C16.3879 0.066879 15.9226 -0.051928 15.4675 0.0210221C15.0146 0.0606239 13.8918 0.699832 14.405 1.20127L18.3056 4.1801H18.3054C18.3685 4.22786 18.4459 4.25338 18.5256 4.25252ZM15.5791 0.711954C15.8392 0.670441 16.105 0.738007 16.3119 0.898499L18.1345 2.29067C18.299 2.41712 18.417 2.59255 18.4711 2.79091C18.525 2.98909 18.5119 3.19908 18.4336 3.38945L15.1533 0.88427C15.2793 0.794472 15.4253 0.7354 15.5791 0.711954Z" fill="#DC2626"/>
<path d="M9.88329 1.29658C3.64993 1.09527 -1.41403 7.55643 0.357946 13.4308C0.380742 13.5226 0.44047 13.6017 0.523527 13.6496C0.606579 13.6976 0.705891 13.7104 0.798665 13.6852C0.891616 13.66 0.970077 13.5989 1.01637 13.5159C1.06267 13.4328 1.07257 13.3351 1.04429 13.2446C-0.596131 7.80866 4.11076 1.80582 9.87795 1.99702C14.7854 1.89767 19.1106 6.14845 19.0084 10.9737C19.122 16.1046 14.2317 20.4822 9.04692 19.9095H9.04675C8.95274 19.9006 8.8589 19.9288 8.7861 19.9878C8.71329 20.0471 8.66717 20.1322 8.65816 20.2246C8.65816 20.8097 9.50497 20.59 9.89357 20.6494C12.346 20.6427 14.7074 19.7362 16.5155 18.1074C23.1226 12.1442 18.8209 1.32171 9.88362 1.29681L9.88329 1.29658Z" fill="#DC2626"/>
<path d="M9.46655 18.585C9.47326 18.778 9.63778 18.9291 9.83411 18.9229C20.6184 18.4801 20.6763 3.53736 9.88288 3.02245C5.01526 2.88453 0.948346 7.66375 1.91192 12.3437C1.95026 12.5308 2.13405 12.6531 2.32507 12.6187C2.5161 12.5843 2.64386 12.4059 2.6124 12.2176C1.73202 7.96443 5.45232 3.59623 9.86453 3.72207C19.7287 4.19541 19.6753 17.8216 9.81046 18.224V18.2242C9.61431 18.2306 9.46039 18.3918 9.4664 18.5846L9.46655 18.585Z" fill="#DC2626"/>
<path d="M9.99501 11.3388L13.5683 11.3311L12.9733 11.9062H12.9731C12.8726 12.0066 12.8425 12.1562 12.8968 12.2866C12.951 12.4171 13.0792 12.5032 13.2225 12.5058C13.3158 12.5056 13.4052 12.4695 13.4716 12.4053L14.6881 11.2292C14.8284 11.0937 14.8304 10.8721 14.6926 10.7341L13.4957 9.53843H13.4955C13.3563 9.4099 13.1386 9.41233 13.0023 9.54381C12.8659 9.67547 12.8595 9.88929 12.9878 10.0286L13.59 10.6299L10.3454 10.6386L10.3097 5.85497L10.9116 6.43996C11.0518 6.57561 11.2772 6.57405 11.4154 6.43631C11.5536 6.29857 11.552 6.07694 11.4119 5.9411L10.1993 4.76365C10.1302 4.70338 10.0424 4.66795 9.95014 4.66309C9.85471 4.66378 9.76353 4.70147 9.69655 4.76817L8.49897 5.96247C8.37403 6.10194 8.38181 6.31298 8.51664 6.44323C8.65129 6.5735 8.86617 6.57749 9.00593 6.45244L9.59756 5.86051C9.60286 5.89334 9.6253 10.9554 9.64103 10.9812H9.64085C9.63785 11.0753 9.6739 11.1663 9.74069 11.2337C9.80749 11.3011 9.8992 11.339 9.99498 11.3386L9.99501 11.3388Z" fill="#DC2626"/>
<path d="M8.61921 17.8849L8.53615 17.7841V17.7839C8.60419 17.6493 8.66286 17.5104 8.71181 17.3678C9.65651 17.2457 9.82864 17.3488 9.89664 16.9236L9.89328 15.6446C9.8931 15.5065 9.81023 15.3814 9.68176 15.3253C9.39619 15.2539 9.10302 15.2159 8.80825 15.2119L8.71177 15.2018C8.66282 15.0594 8.60415 14.9206 8.53612 14.786C9.103 14.0603 9.31964 13.9924 9.05599 13.6469L8.13409 12.7494C8.0346 12.6521 7.88616 12.6216 7.75522 12.6711C7.68648 12.697 7.68648 12.697 7.04308 13.2073L6.97893 13.2584C6.84198 13.1904 6.70061 13.1319 6.55535 13.0834C6.4343 12.1828 6.53609 11.9808 6.1035 11.9209L4.80218 11.924C4.66205 11.9242 4.53517 12.0053 4.47791 12.1309C4.40581 12.4079 4.36747 12.6924 4.36358 12.9784C4.35934 13.0155 4.35545 13.0508 4.35174 13.0834C4.21408 13.1293 4.07961 13.184 3.94902 13.2469C3.21372 12.6897 3.16549 12.5007 2.81332 12.7534L1.90199 13.6592C1.80198 13.7575 1.7707 13.9048 1.8223 14.0344C1.84898 14.1006 1.84898 14.1006 2.34466 14.6995C2.3611 14.7198 2.377 14.7391 2.39238 14.7573C2.31727 14.9008 2.25313 15.0498 2.20082 15.2029C1.25647 15.325 1.08366 15.2218 1.01562 15.647L1.01881 16.9233C1.01934 17.0612 1.10222 17.1861 1.23051 17.2422C1.51607 17.3136 1.80924 17.3516 2.10401 17.3556C2.13971 17.3591 2.17063 17.3622 2.20049 17.3657C2.24944 17.5081 2.30811 17.6471 2.3765 17.7815C1.80926 18.5072 1.59297 18.5751 1.85662 18.9206L2.77744 19.8194C2.87693 19.9165 3.02502 19.9473 3.15596 19.8978C3.2247 19.8719 3.2247 19.8719 3.8681 19.3616L3.93225 19.3105C4.06902 19.3784 4.21056 19.437 4.35565 19.4854C4.35989 19.5233 4.36413 19.5637 4.36855 19.6061C4.46362 20.4878 4.46362 20.4878 4.59686 20.5838C4.658 20.6276 4.73187 20.6511 4.80768 20.6507C6.41874 20.6472 6.46294 20.6472 6.46434 20.3259C6.47283 20.2887 6.52124 19.8394 6.55942 19.4857C6.70432 19.4373 6.84569 19.3789 6.98247 19.3108L7.06764 19.3787C7.77485 19.9441 7.77521 19.9434 7.93653 19.921L7.93635 19.9208C8.01252 19.9099 8.08302 19.8751 8.13727 19.8215L9.03249 18.9373C9.30215 18.7126 9.23801 18.6341 8.61916 17.8848L8.61921 17.8849ZM7.85491 19.1099C7.60557 18.9283 7.12739 18.4539 6.97489 18.547V18.5472C6.71124 18.6736 6.43945 18.783 6.16133 18.8748C5.79483 18.8695 5.8558 19.6063 5.79129 19.9511L5.12105 19.9529C5.10673 19.8229 5.09048 19.6701 5.07581 19.5353C5.02173 19.0341 5.02067 19.0243 4.88637 18.9319V18.9317C4.61318 18.8452 4.34813 18.7356 4.09398 18.6045C3.81478 18.3487 3.34932 18.9161 3.05631 19.1082L2.58344 18.6465C2.66685 18.5444 2.76616 18.4238 2.85345 18.3182C3.18037 17.9217 3.18037 17.9217 3.15368 17.7645H3.15351C3.02221 17.5104 2.91247 17.2464 2.82518 16.9747C2.82518 16.6117 2.07735 16.6768 1.73046 16.6121L1.72869 15.956C2.03741 15.9091 2.72144 15.9133 2.76139 15.733V15.7332C2.85487 15.4518 2.97344 15.1789 3.1157 14.918C3.37139 14.6552 2.82624 14.2161 2.6278 13.9327L3.09679 13.4682C3.35567 13.6555 3.80576 14.1116 3.96957 14.0105L3.96974 14.0103C4.22244 13.8865 4.48433 13.7817 4.75309 13.697C5.11747 13.7015 5.05721 12.9675 5.1217 12.6237H5.79231C5.80663 12.7529 5.82253 12.9037 5.8372 13.0388C5.89127 13.5398 5.89233 13.5492 6.02663 13.6416V13.6417C6.29983 13.7284 6.56488 13.8378 6.81903 13.969C7.09788 14.2248 7.56405 13.6574 7.8567 13.4653L8.32957 13.9273C8.24616 14.0291 8.14685 14.1496 8.05955 14.2552C7.73264 14.6518 7.73264 14.6518 7.75932 14.809L7.7595 14.8091C7.89044 15.062 8.00036 15.3252 8.08783 15.5956C8.08783 15.9587 8.83389 15.8935 9.18255 15.9583V16.6144C8.87383 16.6616 8.19011 16.6571 8.14985 16.8377V16.8375C8.05672 17.1148 7.9408 17.384 7.80332 17.6426C7.77469 17.6898 7.75772 17.743 7.75383 17.7977C7.66901 17.917 8.14561 18.4086 8.32655 18.6441L7.85491 19.1099Z" fill="#DC2626"/>
<path d="M7.8169 16.274C7.69479 13.222 3.20668 13.2237 3.09766 16.2953C3.21411 19.3407 7.70064 19.3407 7.8169 16.2953V16.274ZM5.45728 17.8876C5.02027 17.9046 4.59545 17.7432 4.28357 17.4419C3.9715 17.1405 3.80025 16.7258 3.80998 16.296C3.81634 15.723 4.13053 15.196 4.63575 14.9103C5.14097 14.6246 5.76227 14.6226 6.26944 14.9051C6.7766 15.1877 7.09413 15.7126 7.1044 16.2854C7.11606 16.7167 6.94554 17.1334 6.63365 17.4368C6.32176 17.7403 5.89586 17.9035 5.45728 17.8876Z" fill="#DC2626"/>
</svg>
