<svg width="14" height="17" viewBox="0 0 14 17" fill="none" xmlns="http://www.w3.org/2000/svg">
<path fill-rule="evenodd" clip-rule="evenodd" d="M3.18141 3.64285C3.18141 2.67671 3.58373 1.75013 4.29985 1.06697C5.01597 0.3838 5.98725 0 7 0C8.01275 0 8.98403 0.3838 9.70015 1.06697C10.4163 1.75013 10.8186 2.67671 10.8186 3.64285C10.8186 4.609 10.4163 5.53557 9.70015 6.21874C8.98403 6.90191 8.01275 7.28571 7 7.28571C5.98725 7.28571 5.01597 6.90191 4.29985 6.21874C3.58373 5.53557 3.18141 4.609 3.18141 3.64285ZM0.000101323 15.0612C0.0287155 13.3081 0.778789 11.6361 2.08841 10.4061C3.39804 9.17603 5.16217 8.48659 7 8.48659C8.83784 8.48659 10.602 9.17603 11.9116 10.4061C13.2212 11.6361 13.9713 13.3081 13.9999 15.0612C14.0021 15.1792 13.9682 15.2953 13.9023 15.3952C13.8365 15.4951 13.7415 15.5746 13.6291 15.6238C11.5494 16.5335 9.2879 17.0029 7 17C4.63587 17 2.38969 16.5078 0.370929 15.6238C0.258481 15.5746 0.163516 15.4951 0.0976553 15.3952C0.0317947 15.2953 -0.00210602 15.1792 0.000101323 15.0612Z" fill="white"/>
</svg>
