<svg width="14" height="17" viewBox="0 0 14 17" fill="none" xmlns="http://www.w3.org/2000/svg">
<path d="M10.0004 3.88461C10.0004 4.64966 9.68429 5.38337 9.1216 5.92434C8.55892 6.46531 7.79576 6.76923 7 6.76923C6.20424 6.76923 5.44108 6.46531 4.8784 5.92434C4.31571 5.38337 3.9996 4.64966 3.9996 3.88461C3.9996 3.11957 4.31571 2.38585 4.8784 1.84488C5.44108 1.30391 6.20424 1 7 1C7.79576 1 8.55892 1.30391 9.1216 1.84488C9.68429 2.38585 10.0004 3.11957 10.0004 3.88461ZM1 14.7446C1.02571 13.231 1.66916 11.7878 2.79158 10.7262C3.914 9.66455 5.42546 9.06959 7 9.06959C8.57454 9.06959 10.086 9.66455 11.2084 10.7262C12.3308 11.7878 12.9743 13.231 13 14.7446C11.1177 15.5744 9.07079 16.0027 7 16C4.85891 16 2.82664 15.5508 1 14.7446Z" stroke="#DC2626" stroke-width="1.5" stroke-linecap="round" stroke-linejoin="round"/>
</svg>
